%TF.GenerationSoftware,KiCad,Pcbnew,(6.0.0)*%
%TF.CreationDate,2022-01-08T23:02:58+00:00*%
%TF.ProjectId,2Relay,3252656c-6179-42e6-9b69-6361645f7063,rev?*%
%TF.SameCoordinates,Original*%
%TF.FileFunction,Copper,L1,Top*%
%TF.FilePolarity,Positive*%
%FSLAX46Y46*%
G04 Gerber Fmt 4.6, Leading zero omitted, Abs format (unit mm)*
G04 Created by KiCad (PCBNEW (6.0.0)) date 2022-01-08 23:02:58*
%MOMM*%
%LPD*%
G01*
G04 APERTURE LIST*
G04 Aperture macros list*
%AMRoundRect*
0 Rectangle with rounded corners*
0 $1 Rounding radius*
0 $2 $3 $4 $5 $6 $7 $8 $9 X,Y pos of 4 corners*
0 Add a 4 corners polygon primitive as box body*
4,1,4,$2,$3,$4,$5,$6,$7,$8,$9,$2,$3,0*
0 Add four circle primitives for the rounded corners*
1,1,$1+$1,$2,$3*
1,1,$1+$1,$4,$5*
1,1,$1+$1,$6,$7*
1,1,$1+$1,$8,$9*
0 Add four rect primitives between the rounded corners*
20,1,$1+$1,$2,$3,$4,$5,0*
20,1,$1+$1,$4,$5,$6,$7,0*
20,1,$1+$1,$6,$7,$8,$9,0*
20,1,$1+$1,$8,$9,$2,$3,0*%
G04 Aperture macros list end*
%TA.AperFunction,ComponentPad*%
%ADD10R,1.000000X1.000000*%
%TD*%
%TA.AperFunction,ComponentPad*%
%ADD11O,1.000000X1.000000*%
%TD*%
%TA.AperFunction,SMDPad,CuDef*%
%ADD12RoundRect,0.150000X-0.150000X0.587500X-0.150000X-0.587500X0.150000X-0.587500X0.150000X0.587500X0*%
%TD*%
%TA.AperFunction,SMDPad,CuDef*%
%ADD13RoundRect,0.250000X-0.250000X-0.475000X0.250000X-0.475000X0.250000X0.475000X-0.250000X0.475000X0*%
%TD*%
%TA.AperFunction,SMDPad,CuDef*%
%ADD14RoundRect,0.150000X-0.825000X-0.150000X0.825000X-0.150000X0.825000X0.150000X-0.825000X0.150000X0*%
%TD*%
%TA.AperFunction,SMDPad,CuDef*%
%ADD15R,2.500000X1.800000*%
%TD*%
%TA.AperFunction,SMDPad,CuDef*%
%ADD16RoundRect,0.200000X0.200000X0.275000X-0.200000X0.275000X-0.200000X-0.275000X0.200000X-0.275000X0*%
%TD*%
%TA.AperFunction,SMDPad,CuDef*%
%ADD17RoundRect,0.200000X-0.200000X-0.275000X0.200000X-0.275000X0.200000X0.275000X-0.200000X0.275000X0*%
%TD*%
%TA.AperFunction,ComponentPad*%
%ADD18R,2.300000X2.300000*%
%TD*%
%TA.AperFunction,ComponentPad*%
%ADD19C,2.300000*%
%TD*%
%TA.AperFunction,ComponentPad*%
%ADD20RoundRect,0.250000X-1.750000X1.750000X-1.750000X-1.750000X1.750000X-1.750000X1.750000X1.750000X0*%
%TD*%
%TA.AperFunction,ComponentPad*%
%ADD21C,4.000000*%
%TD*%
%TA.AperFunction,ComponentPad*%
%ADD22R,1.600000X1.600000*%
%TD*%
%TA.AperFunction,ComponentPad*%
%ADD23C,1.600000*%
%TD*%
%TA.AperFunction,SMDPad,CuDef*%
%ADD24R,1.780000X2.000000*%
%TD*%
%TA.AperFunction,SMDPad,CuDef*%
%ADD25R,1.700000X0.650000*%
%TD*%
%TA.AperFunction,ViaPad*%
%ADD26C,0.508000*%
%TD*%
%TA.AperFunction,ViaPad*%
%ADD27C,0.800000*%
%TD*%
%TA.AperFunction,Conductor*%
%ADD28C,0.500000*%
%TD*%
%TA.AperFunction,Conductor*%
%ADD29C,0.250000*%
%TD*%
G04 APERTURE END LIST*
D10*
%TO.P,J1,1,Pin_1*%
%TO.N,VCC*%
X126288800Y-50038000D03*
D11*
%TO.P,J1,2,Pin_2*%
%TO.N,/B*%
X126288800Y-51308000D03*
%TO.P,J1,3,Pin_3*%
%TO.N,/A*%
X126288800Y-52578000D03*
%TO.P,J1,4,Pin_4*%
%TO.N,GND*%
X126288800Y-53848000D03*
%TD*%
D12*
%TO.P,Q2,1,B*%
%TO.N,Net-(R7-Pad2)*%
X110881200Y-58904900D03*
%TO.P,Q2,2,E*%
%TO.N,GND*%
X108981200Y-58904900D03*
%TO.P,Q2,3,C*%
%TO.N,Net-(Q2-Pad3)*%
X109931200Y-60779900D03*
%TD*%
D13*
%TO.P,C2,1*%
%TO.N,VCC*%
X116819600Y-48920400D03*
%TO.P,C2,2*%
%TO.N,GND*%
X118719600Y-48920400D03*
%TD*%
D12*
%TO.P,Q1,1,B*%
%TO.N,Net-(R6-Pad2)*%
X106614000Y-58904900D03*
%TO.P,Q1,2,E*%
%TO.N,GND*%
X104714000Y-58904900D03*
%TO.P,Q1,3,C*%
%TO.N,Net-(Q1-Pad3)*%
X105664000Y-60779900D03*
%TD*%
D14*
%TO.P,U2,1,RO*%
%TO.N,Net-(R2-Pad2)*%
X108878600Y-49961800D03*
%TO.P,U2,2,~{RE}*%
%TO.N,Net-(R3-Pad2)*%
X108878600Y-51231800D03*
%TO.P,U2,3,DE*%
X108878600Y-52501800D03*
%TO.P,U2,4,DI*%
%TO.N,Net-(R1-Pad2)*%
X108878600Y-53771800D03*
%TO.P,U2,5,GND*%
%TO.N,GND*%
X113828600Y-53771800D03*
%TO.P,U2,6,A*%
%TO.N,/A*%
X113828600Y-52501800D03*
%TO.P,U2,7,B*%
%TO.N,/B*%
X113828600Y-51231800D03*
%TO.P,U2,8,VCC*%
%TO.N,VCC*%
X113828600Y-49961800D03*
%TD*%
D15*
%TO.P,D2,1,K*%
%TO.N,VCC*%
X97314000Y-60858400D03*
%TO.P,D2,2,A*%
%TO.N,Net-(Q1-Pad3)*%
X101314000Y-60858400D03*
%TD*%
D16*
%TO.P,R5,1*%
%TO.N,VCC*%
X89826600Y-49072800D03*
%TO.P,R5,2*%
%TO.N,Net-(U3-Pad3)*%
X88176600Y-49072800D03*
%TD*%
D17*
%TO.P,R7,2*%
%TO.N,Net-(R7-Pad2)*%
X114249200Y-57759600D03*
%TO.P,R7,1*%
%TO.N,Net-(U3-Pad5)*%
X112599200Y-57759600D03*
%TD*%
D18*
%TO.P,K2,1*%
%TO.N,VCC*%
X109865000Y-67325000D03*
D19*
%TO.P,K2,2*%
%TO.N,Net-(K2-Pad2)*%
X109865000Y-77485000D03*
%TO.P,K2,3*%
%TO.N,Net-(K2-Pad3)*%
X109865000Y-85105000D03*
%TO.P,K2,5*%
%TO.N,Net-(Q2-Pad3)*%
X117485000Y-67325000D03*
%TD*%
D12*
%TO.P,D1,1,A1*%
%TO.N,/A*%
X121244400Y-51691300D03*
%TO.P,D1,2,A2*%
%TO.N,/B*%
X119344400Y-51691300D03*
%TO.P,D1,3,common*%
%TO.N,GND*%
X120294400Y-53566300D03*
%TD*%
D16*
%TO.P,R1,1*%
%TO.N,VCC*%
X110857800Y-55829200D03*
%TO.P,R1,2*%
%TO.N,Net-(R1-Pad2)*%
X109207800Y-55829200D03*
%TD*%
D20*
%TO.P,J3,1,Pin_1*%
%TO.N,Net-(K2-Pad2)*%
X125095000Y-76410000D03*
D21*
%TO.P,J3,2,Pin_2*%
%TO.N,Net-(K2-Pad3)*%
X125095000Y-83610000D03*
%TD*%
D13*
%TO.P,C3,1*%
%TO.N,VCC*%
X96992400Y-57658000D03*
%TO.P,C3,2*%
%TO.N,GND*%
X98892400Y-57658000D03*
%TD*%
D18*
%TO.P,K1,1*%
%TO.N,VCC*%
X94625000Y-67325000D03*
D19*
%TO.P,K1,2*%
%TO.N,Net-(K1-Pad2)*%
X94625000Y-77485000D03*
%TO.P,K1,3*%
%TO.N,Net-(K1-Pad3)*%
X94625000Y-85105000D03*
%TO.P,K1,5*%
%TO.N,Net-(Q1-Pad3)*%
X102245000Y-67325000D03*
%TD*%
D16*
%TO.P,R2,1*%
%TO.N,VCC*%
X101307400Y-48615600D03*
%TO.P,R2,2*%
%TO.N,Net-(R2-Pad2)*%
X99657400Y-48615600D03*
%TD*%
%TO.P,R4,1*%
%TO.N,VCC*%
X94805000Y-49072800D03*
%TO.P,R4,2*%
%TO.N,Net-(U3-Pad1)*%
X93155000Y-49072800D03*
%TD*%
D15*
%TO.P,D3,1,K*%
%TO.N,VCC*%
X118941600Y-60807600D03*
%TO.P,D3,2,A*%
%TO.N,Net-(Q2-Pad3)*%
X114941600Y-60807600D03*
%TD*%
D13*
%TO.P,C1,1*%
%TO.N,VCC*%
X103850400Y-48666400D03*
%TO.P,C1,2*%
%TO.N,GND*%
X105750400Y-48666400D03*
%TD*%
D22*
%TO.P,C4,1*%
%TO.N,VCC*%
X125642380Y-58826400D03*
D23*
%TO.P,C4,2*%
%TO.N,GND*%
X123142380Y-58826400D03*
%TD*%
D24*
%TO.P,U3,1*%
%TO.N,Net-(U3-Pad1)*%
X93167200Y-51978600D03*
%TO.P,U3,2*%
%TO.N,/R1*%
X90627200Y-51978600D03*
%TO.P,U3,3*%
%TO.N,Net-(U3-Pad3)*%
X88087200Y-51978600D03*
%TO.P,U3,4*%
%TO.N,/R2*%
X85547200Y-51978600D03*
%TO.P,U3,5*%
%TO.N,Net-(U3-Pad5)*%
X85547200Y-61508600D03*
%TO.P,U3,6*%
%TO.N,VCC*%
X88087200Y-61508600D03*
%TO.P,U3,7*%
%TO.N,Net-(U3-Pad7)*%
X90627200Y-61508600D03*
%TO.P,U3,8*%
%TO.N,VCC*%
X93167200Y-61508600D03*
%TD*%
D17*
%TO.P,R3,1*%
%TO.N,VCC*%
X113233200Y-55829200D03*
%TO.P,R3,2*%
%TO.N,Net-(R3-Pad2)*%
X114883200Y-55829200D03*
%TD*%
%TO.P,R6,1*%
%TO.N,Net-(U3-Pad7)*%
X100775000Y-57962800D03*
%TO.P,R6,2*%
%TO.N,Net-(R6-Pad2)*%
X102425000Y-57962800D03*
%TD*%
D25*
%TO.P,U1,1,~{RESET}/PB5*%
%TO.N,unconnected-(U1-Pad1)*%
X97696000Y-51333400D03*
%TO.P,U1,2,XTAL1/PB3*%
%TO.N,/R1*%
X97696000Y-52603400D03*
%TO.P,U1,3,XTAL2/PB4*%
%TO.N,/R2*%
X97696000Y-53873400D03*
%TO.P,U1,4,GND*%
%TO.N,GND*%
X97696000Y-55143400D03*
%TO.P,U1,5,AREF/PB0*%
%TO.N,Net-(R1-Pad2)*%
X104996000Y-55143400D03*
%TO.P,U1,6,PB1*%
%TO.N,Net-(R3-Pad2)*%
X104996000Y-53873400D03*
%TO.P,U1,7,PB2*%
%TO.N,Net-(R2-Pad2)*%
X104996000Y-52603400D03*
%TO.P,U1,8,VCC*%
%TO.N,VCC*%
X104996000Y-51333400D03*
%TD*%
D20*
%TO.P,J2,1,Pin_1*%
%TO.N,Net-(K1-Pad2)*%
X86995000Y-76410000D03*
D21*
%TO.P,J2,2,Pin_2*%
%TO.N,Net-(K1-Pad3)*%
X86995000Y-83610000D03*
%TD*%
D26*
%TO.N,VCC*%
X88138000Y-61468000D03*
X91629920Y-48273280D03*
X96977200Y-57607200D03*
X111912400Y-50292000D03*
D27*
X118948200Y-58496200D03*
X118110000Y-63500000D03*
X94996000Y-60858400D03*
D26*
X102463600Y-48615600D03*
X93167200Y-61468000D03*
D27*
%TO.N,GND*%
X107919180Y-59966920D03*
D26*
X99415600Y-55118000D03*
X105714800Y-48666400D03*
D27*
X103581200Y-59334400D03*
D26*
X98907600Y-57658000D03*
X117424200Y-53771800D03*
X118734800Y-48971200D03*
%TD*%
D28*
%TO.N,VCC*%
X119583200Y-50292000D02*
X118191200Y-50292000D01*
X125642380Y-58826400D02*
X125642380Y-57671980D01*
D29*
X103850400Y-48666400D02*
X103850400Y-49697600D01*
D28*
X118941600Y-62668400D02*
X118110000Y-63500000D01*
D29*
X104996000Y-50843200D02*
X104996000Y-51333400D01*
X89826600Y-49072800D02*
X90626120Y-48273280D01*
D28*
X97314000Y-60858400D02*
X97314000Y-64636000D01*
X97314000Y-64636000D02*
X94625000Y-67325000D01*
X93817400Y-60858400D02*
X93167200Y-61508600D01*
X97314000Y-60858400D02*
X94996000Y-60858400D01*
X94996000Y-60858400D02*
X93817400Y-60858400D01*
X118922800Y-58521600D02*
X118941600Y-58540400D01*
D29*
X90626120Y-48273280D02*
X91629920Y-48273280D01*
D28*
X118941600Y-58540400D02*
X118941600Y-60807600D01*
X125642380Y-57671980D02*
X124764800Y-56794400D01*
D29*
X113828600Y-49961800D02*
X115778200Y-49961800D01*
X110857800Y-55829200D02*
X110857800Y-51346600D01*
X110857800Y-55829200D02*
X113233200Y-55829200D01*
X91629920Y-48273280D02*
X94005480Y-48273280D01*
X110857800Y-51346600D02*
X111912400Y-50292000D01*
D28*
X118941600Y-60807600D02*
X118941600Y-62668400D01*
D29*
X101307400Y-48615600D02*
X102463600Y-48615600D01*
D28*
X118262400Y-60807600D02*
X118941600Y-60807600D01*
X119837200Y-50038000D02*
X119583200Y-50292000D01*
D29*
X115778200Y-49961800D02*
X116819600Y-48920400D01*
D28*
X126288800Y-50038000D02*
X119837200Y-50038000D01*
X120650000Y-56794400D02*
X118948200Y-58496200D01*
X118191200Y-50292000D02*
X116819600Y-48920400D01*
X124764800Y-56794400D02*
X120650000Y-56794400D01*
D29*
X113828600Y-49961800D02*
X112242600Y-49961800D01*
X112242600Y-49961800D02*
X111912400Y-50292000D01*
X103850400Y-49697600D02*
X104996000Y-50843200D01*
X94005480Y-48273280D02*
X94805000Y-49072800D01*
X103799600Y-48615600D02*
X103850400Y-48666400D01*
D28*
X118948200Y-58496200D02*
X118922800Y-58521600D01*
D29*
X102463600Y-48615600D02*
X103799600Y-48615600D01*
D28*
%TO.N,GND*%
X104010700Y-58904900D02*
X103581200Y-59334400D01*
D29*
X99415600Y-55118000D02*
X97721400Y-55118000D01*
D28*
X104714000Y-58904900D02*
X104010700Y-58904900D01*
D29*
X117424200Y-53771800D02*
X120088900Y-53771800D01*
X113828600Y-53771800D02*
X117424200Y-53771800D01*
X97721400Y-55118000D02*
X97696000Y-55143400D01*
D28*
X107919180Y-59966920D02*
X108981200Y-58904900D01*
D29*
X120088900Y-53771800D02*
X120294400Y-53566300D01*
%TO.N,/A*%
X125730000Y-52425600D02*
X125730000Y-52527200D01*
X119698808Y-52753320D02*
X120760828Y-51691300D01*
X120760828Y-51691300D02*
X121244400Y-51691300D01*
X114080120Y-52753320D02*
X119698808Y-52753320D01*
X121244400Y-51691300D02*
X124995700Y-51691300D01*
X125730000Y-52527200D02*
X125780800Y-52578000D01*
X125780800Y-52578000D02*
X126288800Y-52578000D01*
X113828600Y-52501800D02*
X114080120Y-52753320D01*
X124995700Y-51691300D02*
X125730000Y-52425600D01*
%TO.N,/B*%
X120406420Y-50629280D02*
X119344400Y-51691300D01*
X126288800Y-51308000D02*
X126222580Y-51241780D01*
X119344400Y-51691300D02*
X118731900Y-52303800D01*
X122123200Y-51161528D02*
X121590952Y-50629280D01*
X114345600Y-51231800D02*
X113828600Y-51231800D01*
X122123200Y-51241780D02*
X122123200Y-51161528D01*
X126222580Y-51241780D02*
X122123200Y-51241780D01*
X118731900Y-52303800D02*
X115417600Y-52303800D01*
X115417600Y-52303800D02*
X114345600Y-51231800D01*
X121590952Y-50629280D02*
X120406420Y-50629280D01*
%TO.N,Net-(R1-Pad2)*%
X106756200Y-53771800D02*
X108878600Y-53771800D01*
X104996000Y-55143400D02*
X105384600Y-55143400D01*
X105384600Y-55143400D02*
X106756200Y-53771800D01*
X108878600Y-53771800D02*
X108878600Y-55500000D01*
X108878600Y-55500000D02*
X109207800Y-55829200D01*
%TO.N,Net-(R2-Pad2)*%
X99657400Y-48615600D02*
X103645200Y-52603400D01*
X103645200Y-52603400D02*
X104996000Y-52603400D01*
X108162600Y-49961800D02*
X108878600Y-49961800D01*
X105521000Y-52603400D02*
X108162600Y-49961800D01*
X104996000Y-52603400D02*
X105521000Y-52603400D01*
%TO.N,Net-(R3-Pad2)*%
X108162600Y-51231800D02*
X108878600Y-51231800D01*
X114883200Y-55829200D02*
X114083680Y-56628720D01*
X104996000Y-53873400D02*
X105521000Y-53873400D01*
X105521000Y-53873400D02*
X108162600Y-51231800D01*
X104471000Y-53873400D02*
X104996000Y-53873400D01*
X114083680Y-56628720D02*
X104657298Y-56628720D01*
X108878600Y-51231800D02*
X108878600Y-52501800D01*
X103784400Y-55755822D02*
X103784400Y-54560000D01*
X103784400Y-54560000D02*
X104471000Y-53873400D01*
X104657298Y-56628720D02*
X103784400Y-55755822D01*
%TO.N,Net-(U3-Pad1)*%
X93155000Y-49072800D02*
X93167200Y-49085000D01*
X93167200Y-49085000D02*
X93167200Y-51978600D01*
%TO.N,Net-(U3-Pad3)*%
X88176600Y-49072800D02*
X88087200Y-49162200D01*
X88087200Y-49162200D02*
X88087200Y-51978600D01*
%TO.N,/R1*%
X92072480Y-53423880D02*
X94488000Y-53423880D01*
X94488000Y-53423880D02*
X95308480Y-52603400D01*
X95308480Y-52603400D02*
X97696000Y-52603400D01*
X90627200Y-51978600D02*
X92072480Y-53423880D01*
%TO.N,/R2*%
X87442000Y-53873400D02*
X97696000Y-53873400D01*
X85547200Y-51978600D02*
X87442000Y-53873400D01*
%TO.N,Net-(U3-Pad7)*%
X93326680Y-58809120D02*
X99928680Y-58809120D01*
X90627200Y-61508600D02*
X93326680Y-58809120D01*
X99928680Y-58809120D02*
X100775000Y-57962800D01*
%TO.N,Net-(U3-Pad5)*%
X104644460Y-57251600D02*
X103833430Y-56440570D01*
X87365800Y-59690000D02*
X85547200Y-61508600D01*
X112599200Y-57759600D02*
X112091200Y-57251600D01*
X103833430Y-56440570D02*
X94130630Y-56440570D01*
X90881200Y-59690000D02*
X87365800Y-59690000D01*
X94130630Y-56440570D02*
X90881200Y-59690000D01*
X112091200Y-57251600D02*
X104644460Y-57251600D01*
%TO.N,Net-(R6-Pad2)*%
X105551980Y-57842880D02*
X106614000Y-58904900D01*
X102425000Y-57962800D02*
X102544920Y-57842880D01*
X102544920Y-57842880D02*
X105551980Y-57842880D01*
%TO.N,Net-(R7-Pad2)*%
X114249200Y-57759600D02*
X113103900Y-58904900D01*
X110881200Y-58688640D02*
X110881200Y-58904900D01*
X113103900Y-58904900D02*
X110881200Y-58904900D01*
D28*
%TO.N,Net-(Q1-Pad3)*%
X105664000Y-60779900D02*
X101392500Y-60779900D01*
X101314000Y-66394000D02*
X102245000Y-67325000D01*
X101392500Y-60779900D02*
X101314000Y-60858400D01*
X101314000Y-60858400D02*
X101314000Y-66394000D01*
%TO.N,Net-(Q2-Pad3)*%
X114941600Y-60807600D02*
X114941600Y-64781600D01*
X114941600Y-64781600D02*
X117485000Y-67325000D01*
X109931200Y-60779900D02*
X109958900Y-60807600D01*
X109958900Y-60807600D02*
X114941600Y-60807600D01*
%TD*%
M02*
