%TF.GenerationSoftware,KiCad,Pcbnew,(6.0.0)*%
%TF.CreationDate,2022-01-08T23:02:58+00:00*%
%TF.ProjectId,2Relay,3252656c-6179-42e6-9b69-6361645f7063,rev?*%
%TF.SameCoordinates,Original*%
%TF.FileFunction,Paste,Top*%
%TF.FilePolarity,Positive*%
%FSLAX46Y46*%
G04 Gerber Fmt 4.6, Leading zero omitted, Abs format (unit mm)*
G04 Created by KiCad (PCBNEW (6.0.0)) date 2022-01-08 23:02:58*
%MOMM*%
%LPD*%
G01*
G04 APERTURE LIST*
G04 Aperture macros list*
%AMRoundRect*
0 Rectangle with rounded corners*
0 $1 Rounding radius*
0 $2 $3 $4 $5 $6 $7 $8 $9 X,Y pos of 4 corners*
0 Add a 4 corners polygon primitive as box body*
4,1,4,$2,$3,$4,$5,$6,$7,$8,$9,$2,$3,0*
0 Add four circle primitives for the rounded corners*
1,1,$1+$1,$2,$3*
1,1,$1+$1,$4,$5*
1,1,$1+$1,$6,$7*
1,1,$1+$1,$8,$9*
0 Add four rect primitives between the rounded corners*
20,1,$1+$1,$2,$3,$4,$5,0*
20,1,$1+$1,$4,$5,$6,$7,0*
20,1,$1+$1,$6,$7,$8,$9,0*
20,1,$1+$1,$8,$9,$2,$3,0*%
G04 Aperture macros list end*
%ADD10RoundRect,0.150000X-0.150000X0.587500X-0.150000X-0.587500X0.150000X-0.587500X0.150000X0.587500X0*%
%ADD11RoundRect,0.250000X-0.250000X-0.475000X0.250000X-0.475000X0.250000X0.475000X-0.250000X0.475000X0*%
%ADD12RoundRect,0.150000X-0.825000X-0.150000X0.825000X-0.150000X0.825000X0.150000X-0.825000X0.150000X0*%
%ADD13R,2.500000X1.800000*%
%ADD14RoundRect,0.200000X0.200000X0.275000X-0.200000X0.275000X-0.200000X-0.275000X0.200000X-0.275000X0*%
%ADD15RoundRect,0.200000X-0.200000X-0.275000X0.200000X-0.275000X0.200000X0.275000X-0.200000X0.275000X0*%
%ADD16R,1.780000X2.000000*%
%ADD17R,1.700000X0.650000*%
G04 APERTURE END LIST*
D10*
%TO.C,Q2*%
X110881200Y-58904900D03*
X108981200Y-58904900D03*
X109931200Y-60779900D03*
%TD*%
D11*
%TO.C,C2*%
X116819600Y-48920400D03*
X118719600Y-48920400D03*
%TD*%
D10*
%TO.C,Q1*%
X106614000Y-58904900D03*
X104714000Y-58904900D03*
X105664000Y-60779900D03*
%TD*%
D12*
%TO.C,U2*%
X108878600Y-49961800D03*
X108878600Y-51231800D03*
X108878600Y-52501800D03*
X108878600Y-53771800D03*
X113828600Y-53771800D03*
X113828600Y-52501800D03*
X113828600Y-51231800D03*
X113828600Y-49961800D03*
%TD*%
D13*
%TO.C,D2*%
X97314000Y-60858400D03*
X101314000Y-60858400D03*
%TD*%
D14*
%TO.C,R5*%
X89826600Y-49072800D03*
X88176600Y-49072800D03*
%TD*%
D15*
%TO.C,R7*%
X114249200Y-57759600D03*
X112599200Y-57759600D03*
%TD*%
D10*
%TO.C,D1*%
X121244400Y-51691300D03*
X119344400Y-51691300D03*
X120294400Y-53566300D03*
%TD*%
D14*
%TO.C,R1*%
X110857800Y-55829200D03*
X109207800Y-55829200D03*
%TD*%
D11*
%TO.C,C3*%
X96992400Y-57658000D03*
X98892400Y-57658000D03*
%TD*%
D14*
%TO.C,R2*%
X101307400Y-48615600D03*
X99657400Y-48615600D03*
%TD*%
%TO.C,R4*%
X94805000Y-49072800D03*
X93155000Y-49072800D03*
%TD*%
D13*
%TO.C,D3*%
X118941600Y-60807600D03*
X114941600Y-60807600D03*
%TD*%
D11*
%TO.C,C1*%
X103850400Y-48666400D03*
X105750400Y-48666400D03*
%TD*%
D16*
%TO.C,U3*%
X93167200Y-51978600D03*
X90627200Y-51978600D03*
X88087200Y-51978600D03*
X85547200Y-51978600D03*
X85547200Y-61508600D03*
X88087200Y-61508600D03*
X90627200Y-61508600D03*
X93167200Y-61508600D03*
%TD*%
D15*
%TO.C,R3*%
X113233200Y-55829200D03*
X114883200Y-55829200D03*
%TD*%
%TO.C,R6*%
X100775000Y-57962800D03*
X102425000Y-57962800D03*
%TD*%
D17*
%TO.C,U1*%
X97696000Y-51333400D03*
X97696000Y-52603400D03*
X97696000Y-53873400D03*
X97696000Y-55143400D03*
X104996000Y-55143400D03*
X104996000Y-53873400D03*
X104996000Y-52603400D03*
X104996000Y-51333400D03*
%TD*%
M02*
