%TF.GenerationSoftware,KiCad,Pcbnew,(6.0.0)*%
%TF.CreationDate,2022-01-09T12:47:45+00:00*%
%TF.ProjectId,2Relay,3252656c-6179-42e6-9b69-6361645f7063,rev?*%
%TF.SameCoordinates,Original*%
%TF.FileFunction,Legend,Top*%
%TF.FilePolarity,Positive*%
%FSLAX46Y46*%
G04 Gerber Fmt 4.6, Leading zero omitted, Abs format (unit mm)*
G04 Created by KiCad (PCBNEW (6.0.0)) date 2022-01-09 12:47:45*
%MOMM*%
%LPD*%
G01*
G04 APERTURE LIST*
%ADD10C,0.150000*%
%ADD11C,0.120000*%
G04 APERTURE END LIST*
D10*
%TO.C,J1*%
X125955466Y-47795380D02*
X125955466Y-48509666D01*
X125907847Y-48652523D01*
X125812609Y-48747761D01*
X125669752Y-48795380D01*
X125574514Y-48795380D01*
X126955466Y-48795380D02*
X126384038Y-48795380D01*
X126669752Y-48795380D02*
X126669752Y-47795380D01*
X126574514Y-47938238D01*
X126479276Y-48033476D01*
X126384038Y-48081095D01*
%TO.C,Q2*%
X110547161Y-63082419D02*
X110451923Y-63034800D01*
X110356685Y-62939561D01*
X110213828Y-62796704D01*
X110118590Y-62749085D01*
X110023352Y-62749085D01*
X110070971Y-62987180D02*
X109975733Y-62939561D01*
X109880495Y-62844323D01*
X109832876Y-62653847D01*
X109832876Y-62320514D01*
X109880495Y-62130038D01*
X109975733Y-62034800D01*
X110070971Y-61987180D01*
X110261447Y-61987180D01*
X110356685Y-62034800D01*
X110451923Y-62130038D01*
X110499542Y-62320514D01*
X110499542Y-62653847D01*
X110451923Y-62844323D01*
X110356685Y-62939561D01*
X110261447Y-62987180D01*
X110070971Y-62987180D01*
X110880495Y-62082419D02*
X110928114Y-62034800D01*
X111023352Y-61987180D01*
X111261447Y-61987180D01*
X111356685Y-62034800D01*
X111404304Y-62082419D01*
X111451923Y-62177657D01*
X111451923Y-62272895D01*
X111404304Y-62415752D01*
X110832876Y-62987180D01*
X111451923Y-62987180D01*
%TO.C,C2*%
X120295333Y-49277542D02*
X120247714Y-49325161D01*
X120104857Y-49372780D01*
X120009619Y-49372780D01*
X119866761Y-49325161D01*
X119771523Y-49229923D01*
X119723904Y-49134685D01*
X119676285Y-48944209D01*
X119676285Y-48801352D01*
X119723904Y-48610876D01*
X119771523Y-48515638D01*
X119866761Y-48420400D01*
X120009619Y-48372780D01*
X120104857Y-48372780D01*
X120247714Y-48420400D01*
X120295333Y-48468019D01*
X120676285Y-48468019D02*
X120723904Y-48420400D01*
X120819142Y-48372780D01*
X121057238Y-48372780D01*
X121152476Y-48420400D01*
X121200095Y-48468019D01*
X121247714Y-48563257D01*
X121247714Y-48658495D01*
X121200095Y-48801352D01*
X120628666Y-49372780D01*
X121247714Y-49372780D01*
%TO.C,Q1*%
X106533961Y-63082419D02*
X106438723Y-63034800D01*
X106343485Y-62939561D01*
X106200628Y-62796704D01*
X106105390Y-62749085D01*
X106010152Y-62749085D01*
X106057771Y-62987180D02*
X105962533Y-62939561D01*
X105867295Y-62844323D01*
X105819676Y-62653847D01*
X105819676Y-62320514D01*
X105867295Y-62130038D01*
X105962533Y-62034800D01*
X106057771Y-61987180D01*
X106248247Y-61987180D01*
X106343485Y-62034800D01*
X106438723Y-62130038D01*
X106486342Y-62320514D01*
X106486342Y-62653847D01*
X106438723Y-62844323D01*
X106343485Y-62939561D01*
X106248247Y-62987180D01*
X106057771Y-62987180D01*
X107438723Y-62987180D02*
X106867295Y-62987180D01*
X107153009Y-62987180D02*
X107153009Y-61987180D01*
X107057771Y-62130038D01*
X106962533Y-62225276D01*
X106867295Y-62272895D01*
%TO.C,U2*%
X110591695Y-47919180D02*
X110591695Y-48728704D01*
X110639314Y-48823942D01*
X110686933Y-48871561D01*
X110782171Y-48919180D01*
X110972647Y-48919180D01*
X111067885Y-48871561D01*
X111115504Y-48823942D01*
X111163123Y-48728704D01*
X111163123Y-47919180D01*
X111591695Y-48014419D02*
X111639314Y-47966800D01*
X111734552Y-47919180D01*
X111972647Y-47919180D01*
X112067885Y-47966800D01*
X112115504Y-48014419D01*
X112163123Y-48109657D01*
X112163123Y-48204895D01*
X112115504Y-48347752D01*
X111544076Y-48919180D01*
X112163123Y-48919180D01*
%TO.C,D2*%
X103097104Y-63037980D02*
X103097104Y-62037980D01*
X103335200Y-62037980D01*
X103478057Y-62085600D01*
X103573295Y-62180838D01*
X103620914Y-62276076D01*
X103668533Y-62466552D01*
X103668533Y-62609409D01*
X103620914Y-62799885D01*
X103573295Y-62895123D01*
X103478057Y-62990361D01*
X103335200Y-63037980D01*
X103097104Y-63037980D01*
X104049485Y-62133219D02*
X104097104Y-62085600D01*
X104192342Y-62037980D01*
X104430438Y-62037980D01*
X104525676Y-62085600D01*
X104573295Y-62133219D01*
X104620914Y-62228457D01*
X104620914Y-62323695D01*
X104573295Y-62466552D01*
X104001866Y-63037980D01*
X104620914Y-63037980D01*
%TO.C,R5*%
X86396533Y-49525180D02*
X86063200Y-49048990D01*
X85825104Y-49525180D02*
X85825104Y-48525180D01*
X86206057Y-48525180D01*
X86301295Y-48572800D01*
X86348914Y-48620419D01*
X86396533Y-48715657D01*
X86396533Y-48858514D01*
X86348914Y-48953752D01*
X86301295Y-49001371D01*
X86206057Y-49048990D01*
X85825104Y-49048990D01*
X87301295Y-48525180D02*
X86825104Y-48525180D01*
X86777485Y-49001371D01*
X86825104Y-48953752D01*
X86920342Y-48906133D01*
X87158438Y-48906133D01*
X87253676Y-48953752D01*
X87301295Y-49001371D01*
X87348914Y-49096609D01*
X87348914Y-49334704D01*
X87301295Y-49429942D01*
X87253676Y-49477561D01*
X87158438Y-49525180D01*
X86920342Y-49525180D01*
X86825104Y-49477561D01*
X86777485Y-49429942D01*
%TO.C,R7*%
X116038333Y-58237380D02*
X115705000Y-57761190D01*
X115466904Y-58237380D02*
X115466904Y-57237380D01*
X115847857Y-57237380D01*
X115943095Y-57285000D01*
X115990714Y-57332619D01*
X116038333Y-57427857D01*
X116038333Y-57570714D01*
X115990714Y-57665952D01*
X115943095Y-57713571D01*
X115847857Y-57761190D01*
X115466904Y-57761190D01*
X116371666Y-57237380D02*
X117038333Y-57237380D01*
X116609761Y-58237380D01*
%TO.C,K2*%
X120817380Y-77563095D02*
X119817380Y-77563095D01*
X120817380Y-76991666D02*
X120245952Y-77420238D01*
X119817380Y-76991666D02*
X120388809Y-77563095D01*
X119912619Y-76610714D02*
X119865000Y-76563095D01*
X119817380Y-76467857D01*
X119817380Y-76229761D01*
X119865000Y-76134523D01*
X119912619Y-76086904D01*
X120007857Y-76039285D01*
X120103095Y-76039285D01*
X120245952Y-76086904D01*
X120817380Y-76658333D01*
X120817380Y-76039285D01*
%TO.C,D1*%
X118308380Y-53316095D02*
X117308380Y-53316095D01*
X117308380Y-53078000D01*
X117356000Y-52935142D01*
X117451238Y-52839904D01*
X117546476Y-52792285D01*
X117736952Y-52744666D01*
X117879809Y-52744666D01*
X118070285Y-52792285D01*
X118165523Y-52839904D01*
X118260761Y-52935142D01*
X118308380Y-53078000D01*
X118308380Y-53316095D01*
X118308380Y-51792285D02*
X118308380Y-52363714D01*
X118308380Y-52078000D02*
X117308380Y-52078000D01*
X117451238Y-52173238D01*
X117546476Y-52268476D01*
X117594095Y-52363714D01*
%TO.C,R1*%
X107427733Y-56281580D02*
X107094400Y-55805390D01*
X106856304Y-56281580D02*
X106856304Y-55281580D01*
X107237257Y-55281580D01*
X107332495Y-55329200D01*
X107380114Y-55376819D01*
X107427733Y-55472057D01*
X107427733Y-55614914D01*
X107380114Y-55710152D01*
X107332495Y-55757771D01*
X107237257Y-55805390D01*
X106856304Y-55805390D01*
X108380114Y-56281580D02*
X107808685Y-56281580D01*
X108094400Y-56281580D02*
X108094400Y-55281580D01*
X107999161Y-55424438D01*
X107903923Y-55519676D01*
X107808685Y-55567295D01*
%TO.C,J3*%
X127747380Y-80343333D02*
X128461666Y-80343333D01*
X128604523Y-80390952D01*
X128699761Y-80486190D01*
X128747380Y-80629047D01*
X128747380Y-80724285D01*
X127747380Y-79962380D02*
X127747380Y-79343333D01*
X128128333Y-79676666D01*
X128128333Y-79533809D01*
X128175952Y-79438571D01*
X128223571Y-79390952D01*
X128318809Y-79343333D01*
X128556904Y-79343333D01*
X128652142Y-79390952D01*
X128699761Y-79438571D01*
X128747380Y-79533809D01*
X128747380Y-79819523D01*
X128699761Y-79914761D01*
X128652142Y-79962380D01*
%TO.C,C3*%
X95403333Y-56491142D02*
X95355714Y-56538761D01*
X95212857Y-56586380D01*
X95117619Y-56586380D01*
X94974761Y-56538761D01*
X94879523Y-56443523D01*
X94831904Y-56348285D01*
X94784285Y-56157809D01*
X94784285Y-56014952D01*
X94831904Y-55824476D01*
X94879523Y-55729238D01*
X94974761Y-55634000D01*
X95117619Y-55586380D01*
X95212857Y-55586380D01*
X95355714Y-55634000D01*
X95403333Y-55681619D01*
X95736666Y-55586380D02*
X96355714Y-55586380D01*
X96022380Y-55967333D01*
X96165238Y-55967333D01*
X96260476Y-56014952D01*
X96308095Y-56062571D01*
X96355714Y-56157809D01*
X96355714Y-56395904D01*
X96308095Y-56491142D01*
X96260476Y-56538761D01*
X96165238Y-56586380D01*
X95879523Y-56586380D01*
X95784285Y-56538761D01*
X95736666Y-56491142D01*
%TO.C,K1*%
X105577380Y-77563095D02*
X104577380Y-77563095D01*
X105577380Y-76991666D02*
X105005952Y-77420238D01*
X104577380Y-76991666D02*
X105148809Y-77563095D01*
X105577380Y-76039285D02*
X105577380Y-76610714D01*
X105577380Y-76325000D02*
X104577380Y-76325000D01*
X104720238Y-76420238D01*
X104815476Y-76515476D01*
X104863095Y-76610714D01*
%TO.C,R2*%
X97877333Y-48559980D02*
X97544000Y-48083790D01*
X97305904Y-48559980D02*
X97305904Y-47559980D01*
X97686857Y-47559980D01*
X97782095Y-47607600D01*
X97829714Y-47655219D01*
X97877333Y-47750457D01*
X97877333Y-47893314D01*
X97829714Y-47988552D01*
X97782095Y-48036171D01*
X97686857Y-48083790D01*
X97305904Y-48083790D01*
X98258285Y-47655219D02*
X98305904Y-47607600D01*
X98401142Y-47559980D01*
X98639238Y-47559980D01*
X98734476Y-47607600D01*
X98782095Y-47655219D01*
X98829714Y-47750457D01*
X98829714Y-47845695D01*
X98782095Y-47988552D01*
X98210666Y-48559980D01*
X98829714Y-48559980D01*
%TO.C,R4*%
X91374933Y-49525180D02*
X91041600Y-49048990D01*
X90803504Y-49525180D02*
X90803504Y-48525180D01*
X91184457Y-48525180D01*
X91279695Y-48572800D01*
X91327314Y-48620419D01*
X91374933Y-48715657D01*
X91374933Y-48858514D01*
X91327314Y-48953752D01*
X91279695Y-49001371D01*
X91184457Y-49048990D01*
X90803504Y-49048990D01*
X92232076Y-48858514D02*
X92232076Y-49525180D01*
X91993980Y-48477561D02*
X91755885Y-49191847D01*
X92374933Y-49191847D01*
%TO.C,D3*%
X118641904Y-58821580D02*
X118641904Y-57821580D01*
X118880000Y-57821580D01*
X119022857Y-57869200D01*
X119118095Y-57964438D01*
X119165714Y-58059676D01*
X119213333Y-58250152D01*
X119213333Y-58393009D01*
X119165714Y-58583485D01*
X119118095Y-58678723D01*
X119022857Y-58773961D01*
X118880000Y-58821580D01*
X118641904Y-58821580D01*
X119546666Y-57821580D02*
X120165714Y-57821580D01*
X119832380Y-58202533D01*
X119975238Y-58202533D01*
X120070476Y-58250152D01*
X120118095Y-58297771D01*
X120165714Y-58393009D01*
X120165714Y-58631104D01*
X120118095Y-58726342D01*
X120070476Y-58773961D01*
X119975238Y-58821580D01*
X119689523Y-58821580D01*
X119594285Y-58773961D01*
X119546666Y-58726342D01*
%TO.C,C1*%
X107326133Y-48617142D02*
X107278514Y-48664761D01*
X107135657Y-48712380D01*
X107040419Y-48712380D01*
X106897561Y-48664761D01*
X106802323Y-48569523D01*
X106754704Y-48474285D01*
X106707085Y-48283809D01*
X106707085Y-48140952D01*
X106754704Y-47950476D01*
X106802323Y-47855238D01*
X106897561Y-47760000D01*
X107040419Y-47712380D01*
X107135657Y-47712380D01*
X107278514Y-47760000D01*
X107326133Y-47807619D01*
X108278514Y-48712380D02*
X107707085Y-48712380D01*
X107992800Y-48712380D02*
X107992800Y-47712380D01*
X107897561Y-47855238D01*
X107802323Y-47950476D01*
X107707085Y-47998095D01*
%TO.C,C4*%
X121296133Y-55779942D02*
X121248514Y-55827561D01*
X121105657Y-55875180D01*
X121010419Y-55875180D01*
X120867561Y-55827561D01*
X120772323Y-55732323D01*
X120724704Y-55637085D01*
X120677085Y-55446609D01*
X120677085Y-55303752D01*
X120724704Y-55113276D01*
X120772323Y-55018038D01*
X120867561Y-54922800D01*
X121010419Y-54875180D01*
X121105657Y-54875180D01*
X121248514Y-54922800D01*
X121296133Y-54970419D01*
X122153276Y-55208514D02*
X122153276Y-55875180D01*
X121915180Y-54827561D02*
X121677085Y-55541847D01*
X122296133Y-55541847D01*
%TO.C,U3*%
X95337380Y-53466904D02*
X96146904Y-53466904D01*
X96242142Y-53419285D01*
X96289761Y-53371666D01*
X96337380Y-53276428D01*
X96337380Y-53085952D01*
X96289761Y-52990714D01*
X96242142Y-52943095D01*
X96146904Y-52895476D01*
X95337380Y-52895476D01*
X95337380Y-52514523D02*
X95337380Y-51895476D01*
X95718333Y-52228809D01*
X95718333Y-52085952D01*
X95765952Y-51990714D01*
X95813571Y-51943095D01*
X95908809Y-51895476D01*
X96146904Y-51895476D01*
X96242142Y-51943095D01*
X96289761Y-51990714D01*
X96337380Y-52085952D01*
X96337380Y-52371666D01*
X96289761Y-52466904D01*
X96242142Y-52514523D01*
%TO.C,R3*%
X116533133Y-56230780D02*
X116199800Y-55754590D01*
X115961704Y-56230780D02*
X115961704Y-55230780D01*
X116342657Y-55230780D01*
X116437895Y-55278400D01*
X116485514Y-55326019D01*
X116533133Y-55421257D01*
X116533133Y-55564114D01*
X116485514Y-55659352D01*
X116437895Y-55706971D01*
X116342657Y-55754590D01*
X115961704Y-55754590D01*
X116866466Y-55230780D02*
X117485514Y-55230780D01*
X117152180Y-55611733D01*
X117295038Y-55611733D01*
X117390276Y-55659352D01*
X117437895Y-55706971D01*
X117485514Y-55802209D01*
X117485514Y-56040304D01*
X117437895Y-56135542D01*
X117390276Y-56183161D01*
X117295038Y-56230780D01*
X117009323Y-56230780D01*
X116914085Y-56183161D01*
X116866466Y-56135542D01*
%TO.C,R6*%
X103922533Y-57551580D02*
X103589200Y-57075390D01*
X103351104Y-57551580D02*
X103351104Y-56551580D01*
X103732057Y-56551580D01*
X103827295Y-56599200D01*
X103874914Y-56646819D01*
X103922533Y-56742057D01*
X103922533Y-56884914D01*
X103874914Y-56980152D01*
X103827295Y-57027771D01*
X103732057Y-57075390D01*
X103351104Y-57075390D01*
X104779676Y-56551580D02*
X104589200Y-56551580D01*
X104493961Y-56599200D01*
X104446342Y-56646819D01*
X104351104Y-56789676D01*
X104303485Y-56980152D01*
X104303485Y-57361104D01*
X104351104Y-57456342D01*
X104398723Y-57503961D01*
X104493961Y-57551580D01*
X104684438Y-57551580D01*
X104779676Y-57503961D01*
X104827295Y-57456342D01*
X104874914Y-57361104D01*
X104874914Y-57123009D01*
X104827295Y-57027771D01*
X104779676Y-56980152D01*
X104684438Y-56932533D01*
X104493961Y-56932533D01*
X104398723Y-56980152D01*
X104351104Y-57027771D01*
X104303485Y-57123009D01*
%TO.C,U1*%
X97180495Y-49083980D02*
X97180495Y-49893504D01*
X97228114Y-49988742D01*
X97275733Y-50036361D01*
X97370971Y-50083980D01*
X97561447Y-50083980D01*
X97656685Y-50036361D01*
X97704304Y-49988742D01*
X97751923Y-49893504D01*
X97751923Y-49083980D01*
X98751923Y-50083980D02*
X98180495Y-50083980D01*
X98466209Y-50083980D02*
X98466209Y-49083980D01*
X98370971Y-49226838D01*
X98275733Y-49322076D01*
X98180495Y-49369695D01*
%TO.C,J2*%
X89647380Y-80343333D02*
X90361666Y-80343333D01*
X90504523Y-80390952D01*
X90599761Y-80486190D01*
X90647380Y-80629047D01*
X90647380Y-80724285D01*
X89742619Y-79914761D02*
X89695000Y-79867142D01*
X89647380Y-79771904D01*
X89647380Y-79533809D01*
X89695000Y-79438571D01*
X89742619Y-79390952D01*
X89837857Y-79343333D01*
X89933095Y-79343333D01*
X90075952Y-79390952D01*
X90647380Y-79962380D01*
X90647380Y-79343333D01*
D11*
%TO.C,J1*%
X125178800Y-50798000D02*
X125178800Y-54543000D01*
X126852271Y-50798000D02*
X127398800Y-50798000D01*
X125178800Y-49278000D02*
X126288800Y-49278000D01*
X125178800Y-54543000D02*
X125981270Y-54543000D01*
X127398800Y-50798000D02*
X127398800Y-54543000D01*
X125178800Y-50798000D02*
X125725329Y-50798000D01*
X125178800Y-50038000D02*
X125178800Y-49278000D01*
X126596330Y-54543000D02*
X127398800Y-54543000D01*
%TO.C,Q2*%
X108371200Y-59842400D02*
X108371200Y-60492400D01*
X111491200Y-59842400D02*
X111491200Y-60492400D01*
X108371200Y-59842400D02*
X108371200Y-59192400D01*
X111491200Y-59842400D02*
X111491200Y-58167400D01*
%TO.C,C2*%
X117508348Y-49655400D02*
X118030852Y-49655400D01*
X117508348Y-48185400D02*
X118030852Y-48185400D01*
%TO.C,Q1*%
X104104000Y-59842400D02*
X104104000Y-59192400D01*
X104104000Y-59842400D02*
X104104000Y-60492400D01*
X107224000Y-59842400D02*
X107224000Y-58167400D01*
X107224000Y-59842400D02*
X107224000Y-60492400D01*
%TO.C,U2*%
X111353600Y-49306800D02*
X107903600Y-49306800D01*
X111353600Y-54426800D02*
X113303600Y-54426800D01*
X111353600Y-49306800D02*
X113303600Y-49306800D01*
X111353600Y-54426800D02*
X109403600Y-54426800D01*
%TO.C,D2*%
X95914000Y-62508400D02*
X101314000Y-62508400D01*
X95914000Y-59208400D02*
X95914000Y-62508400D01*
X95914000Y-59208400D02*
X101314000Y-59208400D01*
%TO.C,R5*%
X89238858Y-49595300D02*
X88764342Y-49595300D01*
X89238858Y-48550300D02*
X88764342Y-48550300D01*
%TO.C,R7*%
X113186942Y-57237100D02*
X113661458Y-57237100D01*
X113186942Y-58282100D02*
X113661458Y-58282100D01*
%TO.C,K2*%
X111135000Y-85105000D02*
X112405000Y-85105000D01*
X112155000Y-69865000D02*
X112155000Y-69355000D01*
X114695000Y-69355000D02*
X114695000Y-69865000D01*
X114695000Y-69865000D02*
X114695000Y-70375000D01*
X119175000Y-65645000D02*
X119175000Y-86785000D01*
X108175000Y-86785000D02*
X119175000Y-86785000D01*
X109865000Y-69865000D02*
X112155000Y-69865000D01*
X108175000Y-65645000D02*
X119175000Y-65645000D01*
X112155000Y-69355000D02*
X114695000Y-69355000D01*
X114695000Y-69865000D02*
X117485000Y-69865000D01*
X109865000Y-68595000D02*
X109865000Y-69865000D01*
X113675000Y-77485000D02*
X113675000Y-82565000D01*
X108175000Y-65645000D02*
X108175000Y-86785000D01*
X111135000Y-77485000D02*
X113675000Y-77485000D01*
X112155000Y-70375000D02*
X112155000Y-69865000D01*
X114695000Y-70375000D02*
X112155000Y-70375000D01*
X112915000Y-69355000D02*
X113925000Y-70375000D01*
X117485000Y-69865000D02*
X117485000Y-68595000D01*
X113675000Y-82565000D02*
X115075000Y-85355000D01*
X113805000Y-82565000D02*
G75*
G03*
X113805000Y-82565000I-130000J0D01*
G01*
%TO.C,D1*%
X118734400Y-52628800D02*
X118734400Y-53278800D01*
X118734400Y-52628800D02*
X118734400Y-51978800D01*
X121854400Y-52628800D02*
X121854400Y-50953800D01*
X121854400Y-52628800D02*
X121854400Y-53278800D01*
%TO.C,R1*%
X110270058Y-55306700D02*
X109795542Y-55306700D01*
X110270058Y-56351700D02*
X109795542Y-56351700D01*
%TO.C,C3*%
X97020748Y-58393000D02*
X97543252Y-58393000D01*
X97020748Y-56923000D02*
X97543252Y-56923000D01*
%TO.C,K1*%
X99455000Y-69865000D02*
X102245000Y-69865000D01*
X96915000Y-69355000D02*
X99455000Y-69355000D01*
X96915000Y-69865000D02*
X96915000Y-69355000D01*
X99455000Y-70375000D02*
X96915000Y-70375000D01*
X95895000Y-77485000D02*
X98435000Y-77485000D01*
X95895000Y-85105000D02*
X97165000Y-85105000D01*
X98435000Y-77485000D02*
X98435000Y-82565000D01*
X94625000Y-68595000D02*
X94625000Y-69865000D01*
X97675000Y-69355000D02*
X98685000Y-70375000D01*
X98435000Y-82565000D02*
X99835000Y-85355000D01*
X99455000Y-69355000D02*
X99455000Y-69865000D01*
X92935000Y-65645000D02*
X92935000Y-86785000D01*
X96915000Y-70375000D02*
X96915000Y-69865000D01*
X94625000Y-69865000D02*
X96915000Y-69865000D01*
X92935000Y-86785000D02*
X103935000Y-86785000D01*
X102245000Y-69865000D02*
X102245000Y-68595000D01*
X92935000Y-65645000D02*
X103935000Y-65645000D01*
X99455000Y-69865000D02*
X99455000Y-70375000D01*
X103935000Y-65645000D02*
X103935000Y-86785000D01*
X98565000Y-82565000D02*
G75*
G03*
X98565000Y-82565000I-130000J0D01*
G01*
%TO.C,R2*%
X100719658Y-48093100D02*
X100245142Y-48093100D01*
X100719658Y-49138100D02*
X100245142Y-49138100D01*
%TO.C,R4*%
X94217258Y-48550300D02*
X93742742Y-48550300D01*
X94217258Y-49595300D02*
X93742742Y-49595300D01*
%TO.C,D3*%
X120341600Y-59157600D02*
X114941600Y-59157600D01*
X120341600Y-62457600D02*
X120341600Y-59157600D01*
X120341600Y-62457600D02*
X114941600Y-62457600D01*
%TO.C,C1*%
X104539148Y-49401400D02*
X105061652Y-49401400D01*
X104539148Y-47931400D02*
X105061652Y-47931400D01*
%TO.C,C4*%
X122911380Y-57786400D02*
X122911380Y-55950400D01*
X122391380Y-61374400D02*
X122391380Y-59866400D01*
X124392380Y-62056400D02*
X124392380Y-55596400D01*
X127577621Y-60980400D02*
X127577621Y-60350400D01*
X122591380Y-61516400D02*
X122591380Y-59866400D01*
X121391380Y-60088400D02*
X121391380Y-57564400D01*
X123551380Y-61947400D02*
X123551380Y-59866400D01*
X122111380Y-57786400D02*
X122111380Y-56521400D01*
X121431380Y-60176400D02*
X121431380Y-57476400D01*
X123832380Y-62008400D02*
X123832380Y-59866400D01*
X123391380Y-57786400D02*
X123391380Y-55752400D01*
X121271380Y-59766400D02*
X121271380Y-57886400D01*
X122431380Y-57786400D02*
X122431380Y-56248400D01*
X123872380Y-57786400D02*
X123872380Y-55637400D01*
X123311380Y-61873400D02*
X123311380Y-59866400D01*
X123271380Y-57786400D02*
X123271380Y-55793400D01*
X122591380Y-57786400D02*
X122591380Y-56136400D01*
X123351380Y-57786400D02*
X123351380Y-55765400D01*
X123471380Y-61924400D02*
X123471380Y-59866400D01*
X123792380Y-57786400D02*
X123792380Y-55651400D01*
X122791380Y-61638400D02*
X122791380Y-59866400D01*
X121831380Y-60821400D02*
X121831380Y-56831400D01*
X122351380Y-61342400D02*
X122351380Y-59866400D01*
X123551380Y-57786400D02*
X123551380Y-55705400D01*
X122351380Y-57786400D02*
X122351380Y-56310400D01*
X122231380Y-57786400D02*
X122231380Y-56410400D01*
X121311380Y-59885400D02*
X121311380Y-57767400D01*
X123191380Y-61828400D02*
X123191380Y-59866400D01*
X122311380Y-57786400D02*
X122311380Y-56342400D01*
X122671380Y-57786400D02*
X122671380Y-56084400D01*
X122671380Y-61568400D02*
X122671380Y-59866400D01*
X121671380Y-60602400D02*
X121671380Y-57050400D01*
X121351380Y-59991400D02*
X121351380Y-57661400D01*
X121991380Y-61008400D02*
X121991380Y-56644400D01*
X121151380Y-59228400D02*
X121151380Y-58424400D01*
X123511380Y-57786400D02*
X123511380Y-55716400D01*
X127892621Y-60665400D02*
X127262621Y-60665400D01*
X122191380Y-57786400D02*
X122191380Y-56446400D01*
X122991380Y-61742400D02*
X122991380Y-59866400D01*
X123311380Y-57786400D02*
X123311380Y-55779400D01*
X122911380Y-61702400D02*
X122911380Y-59866400D01*
X123111380Y-61796400D02*
X123111380Y-59866400D01*
X122391380Y-57786400D02*
X122391380Y-56278400D01*
X124032380Y-62037400D02*
X124032380Y-59866400D01*
X124272380Y-62054400D02*
X124272380Y-55598400D01*
X121631380Y-60540400D02*
X121631380Y-57112400D01*
X123832380Y-57786400D02*
X123832380Y-55644400D01*
X122471380Y-61433400D02*
X122471380Y-59866400D01*
X123431380Y-57786400D02*
X123431380Y-55740400D01*
X123391380Y-61900400D02*
X123391380Y-59866400D01*
X122711380Y-61592400D02*
X122711380Y-59866400D01*
X124312380Y-62056400D02*
X124312380Y-55596400D01*
X123591380Y-61957400D02*
X123591380Y-59866400D01*
X122871380Y-57786400D02*
X122871380Y-55970400D01*
X123031380Y-57786400D02*
X123031380Y-55892400D01*
X123671380Y-61976400D02*
X123671380Y-59866400D01*
X121751380Y-60716400D02*
X121751380Y-56936400D01*
X123712380Y-57786400D02*
X123712380Y-55667400D01*
X123952380Y-57786400D02*
X123952380Y-55625400D01*
X122631380Y-61542400D02*
X122631380Y-59866400D01*
X123591380Y-57786400D02*
X123591380Y-55695400D01*
X122231380Y-61242400D02*
X122231380Y-59866400D01*
X123792380Y-62001400D02*
X123792380Y-59866400D01*
X122991380Y-57786400D02*
X122991380Y-55910400D01*
X122271380Y-61276400D02*
X122271380Y-59866400D01*
X122831380Y-61660400D02*
X122831380Y-59866400D01*
X121791380Y-60770400D02*
X121791380Y-56882400D01*
X122431380Y-61404400D02*
X122431380Y-59866400D01*
X124072380Y-57786400D02*
X124072380Y-55611400D01*
X124072380Y-62041400D02*
X124072380Y-59866400D01*
X123671380Y-57786400D02*
X123671380Y-55676400D01*
X121231380Y-59628400D02*
X121231380Y-58024400D01*
X123992380Y-62032400D02*
X123992380Y-59866400D01*
X121711380Y-60660400D02*
X121711380Y-56992400D01*
X123912380Y-62021400D02*
X123912380Y-59866400D01*
X121191380Y-59459400D02*
X121191380Y-58193400D01*
X122551380Y-57786400D02*
X122551380Y-56162400D01*
X121871380Y-60870400D02*
X121871380Y-56782400D01*
X124032380Y-57786400D02*
X124032380Y-55615400D01*
X122511380Y-61462400D02*
X122511380Y-59866400D01*
X124232380Y-62053400D02*
X124232380Y-55599400D01*
X123912380Y-57786400D02*
X123912380Y-55631400D01*
X122511380Y-57786400D02*
X122511380Y-56190400D01*
X123872380Y-62015400D02*
X123872380Y-59866400D01*
X121951380Y-60963400D02*
X121951380Y-56689400D01*
X124152380Y-57786400D02*
X124152380Y-55604400D01*
X123231380Y-61844400D02*
X123231380Y-59866400D01*
X121591380Y-60476400D02*
X121591380Y-57176400D01*
X122071380Y-61091400D02*
X122071380Y-56561400D01*
X123712380Y-61985400D02*
X123712380Y-59866400D01*
X123271380Y-61859400D02*
X123271380Y-59866400D01*
X123952380Y-62027400D02*
X123952380Y-59866400D01*
X123151380Y-61812400D02*
X123151380Y-59866400D01*
X123752380Y-61993400D02*
X123752380Y-59866400D01*
X123431380Y-61912400D02*
X123431380Y-59866400D01*
X122311380Y-61310400D02*
X122311380Y-59866400D01*
X123071380Y-57786400D02*
X123071380Y-55874400D01*
X121471380Y-60258400D02*
X121471380Y-57394400D01*
X122831380Y-57786400D02*
X122831380Y-55992400D01*
X122751380Y-61616400D02*
X122751380Y-59866400D01*
X123151380Y-57786400D02*
X123151380Y-55840400D01*
X122191380Y-61206400D02*
X122191380Y-59866400D01*
X122871380Y-61682400D02*
X122871380Y-59866400D01*
X123631380Y-61967400D02*
X123631380Y-59866400D01*
X123191380Y-57786400D02*
X123191380Y-55824400D01*
X123752380Y-57786400D02*
X123752380Y-55659400D01*
X124112380Y-57786400D02*
X124112380Y-55608400D01*
X123071380Y-61778400D02*
X123071380Y-59866400D01*
X122791380Y-57786400D02*
X122791380Y-56014400D01*
X122151380Y-57786400D02*
X122151380Y-56483400D01*
X122751380Y-57786400D02*
X122751380Y-56036400D01*
X123231380Y-57786400D02*
X123231380Y-55808400D01*
X122631380Y-57786400D02*
X122631380Y-56110400D01*
X123511380Y-61936400D02*
X123511380Y-59866400D01*
X122551380Y-61490400D02*
X122551380Y-59866400D01*
X121511380Y-60335400D02*
X121511380Y-57317400D01*
X122111380Y-61131400D02*
X122111380Y-59866400D01*
X124152380Y-62048400D02*
X124152380Y-59866400D01*
X123631380Y-57786400D02*
X123631380Y-55685400D01*
X121551380Y-60407400D02*
X121551380Y-57245400D01*
X124352380Y-62056400D02*
X124352380Y-55596400D01*
X122711380Y-57786400D02*
X122711380Y-56060400D01*
X122471380Y-57786400D02*
X122471380Y-56219400D01*
X124192380Y-62050400D02*
X124192380Y-55602400D01*
X122951380Y-57786400D02*
X122951380Y-55930400D01*
X123111380Y-57786400D02*
X123111380Y-55856400D01*
X122031380Y-61050400D02*
X122031380Y-56602400D01*
X124112380Y-62044400D02*
X124112380Y-59866400D01*
X122151380Y-61169400D02*
X122151380Y-59866400D01*
X121911380Y-60918400D02*
X121911380Y-56734400D01*
X122271380Y-57786400D02*
X122271380Y-56376400D01*
X123471380Y-57786400D02*
X123471380Y-55728400D01*
X123031380Y-61760400D02*
X123031380Y-59866400D01*
X122951380Y-61722400D02*
X122951380Y-59866400D01*
X123992380Y-57786400D02*
X123992380Y-55620400D01*
X123351380Y-61887400D02*
X123351380Y-59866400D01*
X127662380Y-58826400D02*
G75*
G03*
X127662380Y-58826400I-3270000J0D01*
G01*
%TO.C,U3*%
X84217200Y-53508600D02*
X84217200Y-59978600D01*
X94497200Y-55743600D02*
X94497200Y-53508600D01*
X84217200Y-59978600D02*
X94497200Y-59978600D01*
X94497200Y-53508600D02*
X84217200Y-53508600D01*
X94497200Y-59978600D02*
X94497200Y-57743600D01*
X94497200Y-55743600D02*
G75*
G03*
X94497200Y-57743600I0J-1000000D01*
G01*
%TO.C,R3*%
X113820942Y-55306700D02*
X114295458Y-55306700D01*
X113820942Y-56351700D02*
X114295458Y-56351700D01*
%TO.C,R6*%
X101362742Y-58485300D02*
X101837258Y-58485300D01*
X101362742Y-57440300D02*
X101837258Y-57440300D01*
D10*
%TO.C,U1*%
X104096000Y-50483400D02*
X104096000Y-50783400D01*
X98596000Y-50688400D02*
X96846000Y-50688400D01*
X98596000Y-55993400D02*
X98596000Y-55693400D01*
X98596000Y-50483400D02*
X104096000Y-50483400D01*
X98596000Y-50483400D02*
X98596000Y-50688400D01*
X98596000Y-55993400D02*
X104096000Y-55993400D01*
X104096000Y-55993400D02*
X104096000Y-55693400D01*
%TD*%
M02*
