%TF.GenerationSoftware,KiCad,Pcbnew,(6.0.0)*%
%TF.CreationDate,2022-01-08T23:02:58+00:00*%
%TF.ProjectId,2Relay,3252656c-6179-42e6-9b69-6361645f7063,rev?*%
%TF.SameCoordinates,Original*%
%TF.FileFunction,Copper,L2,Bot*%
%TF.FilePolarity,Positive*%
%FSLAX46Y46*%
G04 Gerber Fmt 4.6, Leading zero omitted, Abs format (unit mm)*
G04 Created by KiCad (PCBNEW (6.0.0)) date 2022-01-08 23:02:58*
%MOMM*%
%LPD*%
G01*
G04 APERTURE LIST*
G04 Aperture macros list*
%AMRoundRect*
0 Rectangle with rounded corners*
0 $1 Rounding radius*
0 $2 $3 $4 $5 $6 $7 $8 $9 X,Y pos of 4 corners*
0 Add a 4 corners polygon primitive as box body*
4,1,4,$2,$3,$4,$5,$6,$7,$8,$9,$2,$3,0*
0 Add four circle primitives for the rounded corners*
1,1,$1+$1,$2,$3*
1,1,$1+$1,$4,$5*
1,1,$1+$1,$6,$7*
1,1,$1+$1,$8,$9*
0 Add four rect primitives between the rounded corners*
20,1,$1+$1,$2,$3,$4,$5,0*
20,1,$1+$1,$4,$5,$6,$7,0*
20,1,$1+$1,$6,$7,$8,$9,0*
20,1,$1+$1,$8,$9,$2,$3,0*%
G04 Aperture macros list end*
%TA.AperFunction,ComponentPad*%
%ADD10R,1.000000X1.000000*%
%TD*%
%TA.AperFunction,ComponentPad*%
%ADD11O,1.000000X1.000000*%
%TD*%
%TA.AperFunction,ComponentPad*%
%ADD12R,2.300000X2.300000*%
%TD*%
%TA.AperFunction,ComponentPad*%
%ADD13C,2.300000*%
%TD*%
%TA.AperFunction,ComponentPad*%
%ADD14RoundRect,0.250000X-1.750000X1.750000X-1.750000X-1.750000X1.750000X-1.750000X1.750000X1.750000X0*%
%TD*%
%TA.AperFunction,ComponentPad*%
%ADD15C,4.000000*%
%TD*%
%TA.AperFunction,ComponentPad*%
%ADD16R,1.600000X1.600000*%
%TD*%
%TA.AperFunction,ComponentPad*%
%ADD17C,1.600000*%
%TD*%
%TA.AperFunction,ViaPad*%
%ADD18C,0.508000*%
%TD*%
%TA.AperFunction,ViaPad*%
%ADD19C,0.800000*%
%TD*%
%TA.AperFunction,Conductor*%
%ADD20C,0.500000*%
%TD*%
%TA.AperFunction,Conductor*%
%ADD21C,0.250000*%
%TD*%
%TA.AperFunction,Conductor*%
%ADD22C,3.000000*%
%TD*%
G04 APERTURE END LIST*
D10*
%TO.P,J1,1,Pin_1*%
%TO.N,VCC*%
X126288800Y-50038000D03*
D11*
%TO.P,J1,2,Pin_2*%
%TO.N,/B*%
X126288800Y-51308000D03*
%TO.P,J1,3,Pin_3*%
%TO.N,/A*%
X126288800Y-52578000D03*
%TO.P,J1,4,Pin_4*%
%TO.N,GND*%
X126288800Y-53848000D03*
%TD*%
D12*
%TO.P,K2,1*%
%TO.N,VCC*%
X109865000Y-67325000D03*
D13*
%TO.P,K2,2*%
%TO.N,Net-(K2-Pad2)*%
X109865000Y-77485000D03*
%TO.P,K2,3*%
%TO.N,Net-(K2-Pad3)*%
X109865000Y-85105000D03*
%TO.P,K2,5*%
%TO.N,Net-(Q2-Pad3)*%
X117485000Y-67325000D03*
%TD*%
D14*
%TO.P,J3,1,Pin_1*%
%TO.N,Net-(K2-Pad2)*%
X125095000Y-76410000D03*
D15*
%TO.P,J3,2,Pin_2*%
%TO.N,Net-(K2-Pad3)*%
X125095000Y-83610000D03*
%TD*%
D12*
%TO.P,K1,1*%
%TO.N,VCC*%
X94625000Y-67325000D03*
D13*
%TO.P,K1,2*%
%TO.N,Net-(K1-Pad2)*%
X94625000Y-77485000D03*
%TO.P,K1,3*%
%TO.N,Net-(K1-Pad3)*%
X94625000Y-85105000D03*
%TO.P,K1,5*%
%TO.N,Net-(Q1-Pad3)*%
X102245000Y-67325000D03*
%TD*%
D16*
%TO.P,C4,1*%
%TO.N,VCC*%
X125642380Y-58826400D03*
D17*
%TO.P,C4,2*%
%TO.N,GND*%
X123142380Y-58826400D03*
%TD*%
D14*
%TO.P,J2,1,Pin_1*%
%TO.N,Net-(K1-Pad2)*%
X86995000Y-76410000D03*
D15*
%TO.P,J2,2,Pin_2*%
%TO.N,Net-(K1-Pad3)*%
X86995000Y-83610000D03*
%TD*%
D18*
%TO.N,VCC*%
X88138000Y-61468000D03*
X91629920Y-48273280D03*
X96977200Y-57607200D03*
X111912400Y-50292000D03*
D19*
X118948200Y-58496200D03*
X118110000Y-63500000D03*
X94996000Y-60858400D03*
D18*
X102463600Y-48615600D03*
X93167200Y-61468000D03*
D19*
%TO.N,GND*%
X107919180Y-59966920D03*
D18*
X99415600Y-55118000D03*
X105714800Y-48666400D03*
D19*
X103581200Y-59334400D03*
D18*
X98907600Y-57658000D03*
X117424200Y-53771800D03*
X118734800Y-48971200D03*
%TD*%
D20*
%TO.N,VCC*%
X125288800Y-50038000D02*
X126288800Y-50038000D01*
X104800400Y-60858400D02*
X107162600Y-58496200D01*
X114285000Y-67325000D02*
X109865000Y-67325000D01*
D21*
X96977200Y-57658000D02*
X93167200Y-61468000D01*
X111912400Y-50292000D02*
X104140000Y-50292000D01*
X96977200Y-57607200D02*
X96977200Y-57658000D01*
D20*
X125642380Y-58826400D02*
X124409200Y-57593220D01*
X118110000Y-63500000D02*
X114285000Y-67325000D01*
D21*
X104140000Y-50292000D02*
X102463600Y-48615600D01*
D20*
X118948200Y-58496200D02*
X107162600Y-58496200D01*
X94996000Y-60858400D02*
X104800400Y-60858400D01*
D21*
X102108000Y-48260000D02*
X102463600Y-48615600D01*
D20*
X124409200Y-57593220D02*
X124409200Y-50917600D01*
X124409200Y-50917600D02*
X125288800Y-50038000D01*
D21*
X91629920Y-48273280D02*
X91643200Y-48260000D01*
X93167200Y-61468000D02*
X88138000Y-61468000D01*
X91643200Y-48260000D02*
X102108000Y-48260000D01*
D22*
%TO.N,Net-(K1-Pad2)*%
X88070000Y-77485000D02*
X86995000Y-76410000D01*
X94625000Y-77485000D02*
X88070000Y-77485000D01*
%TO.N,Net-(K1-Pad3)*%
X88490000Y-85105000D02*
X86995000Y-83610000D01*
X94625000Y-85105000D02*
X88490000Y-85105000D01*
%TO.N,Net-(K2-Pad2)*%
X124020000Y-77485000D02*
X125095000Y-76410000D01*
X109865000Y-77485000D02*
X124020000Y-77485000D01*
%TO.N,Net-(K2-Pad3)*%
X123600000Y-85105000D02*
X125095000Y-83610000D01*
X109865000Y-85105000D02*
X123600000Y-85105000D01*
%TD*%
%TA.AperFunction,Conductor*%
%TO.N,GND*%
G36*
X129355931Y-47010002D02*
G01*
X129376905Y-47026905D01*
X129503095Y-47153095D01*
X129537121Y-47215407D01*
X129540000Y-47242190D01*
X129540000Y-64517810D01*
X129519998Y-64585931D01*
X129503095Y-64606905D01*
X129376905Y-64733095D01*
X129314593Y-64767121D01*
X129287810Y-64770000D01*
X118216871Y-64770000D01*
X118148750Y-64749998D01*
X118102257Y-64696342D01*
X118092153Y-64626068D01*
X118121647Y-64561488D01*
X118127776Y-64554905D01*
X118266331Y-64416350D01*
X118329228Y-64382199D01*
X118385824Y-64370169D01*
X118385833Y-64370166D01*
X118392288Y-64368794D01*
X118398319Y-64366109D01*
X118560722Y-64293803D01*
X118560724Y-64293802D01*
X118566752Y-64291118D01*
X118721253Y-64178866D01*
X118849040Y-64036944D01*
X118944527Y-63871556D01*
X119003542Y-63689928D01*
X119023504Y-63500000D01*
X119003542Y-63310072D01*
X118944527Y-63128444D01*
X118849040Y-62963056D01*
X118721253Y-62821134D01*
X118566752Y-62708882D01*
X118560724Y-62706198D01*
X118560722Y-62706197D01*
X118398319Y-62633891D01*
X118398318Y-62633891D01*
X118392288Y-62631206D01*
X118298887Y-62611353D01*
X118211944Y-62592872D01*
X118211939Y-62592872D01*
X118205487Y-62591500D01*
X118014513Y-62591500D01*
X118008061Y-62592872D01*
X118008056Y-62592872D01*
X117921113Y-62611353D01*
X117827712Y-62631206D01*
X117821682Y-62633891D01*
X117821681Y-62633891D01*
X117659278Y-62706197D01*
X117659276Y-62706198D01*
X117653248Y-62708882D01*
X117498747Y-62821134D01*
X117370960Y-62963056D01*
X117275473Y-63128444D01*
X117273431Y-63134729D01*
X117220613Y-63297285D01*
X117189875Y-63347444D01*
X115804224Y-64733095D01*
X115741912Y-64767121D01*
X115715129Y-64770000D01*
X82802190Y-64770000D01*
X82734069Y-64749998D01*
X82713095Y-64733095D01*
X82586905Y-64606905D01*
X82552879Y-64544593D01*
X82550000Y-64517810D01*
X82550000Y-61457286D01*
X87370750Y-61457286D01*
X87387443Y-61627536D01*
X87441440Y-61789856D01*
X87445087Y-61795878D01*
X87445088Y-61795880D01*
X87526406Y-61930154D01*
X87526409Y-61930157D01*
X87530056Y-61936180D01*
X87648889Y-62059234D01*
X87792030Y-62152903D01*
X87798634Y-62155359D01*
X87798636Y-62155360D01*
X87945757Y-62210074D01*
X87945759Y-62210074D01*
X87952367Y-62212532D01*
X88031454Y-62223085D01*
X88114949Y-62234226D01*
X88114953Y-62234226D01*
X88121930Y-62235157D01*
X88128941Y-62234519D01*
X88128945Y-62234519D01*
X88285273Y-62220292D01*
X88285275Y-62220292D01*
X88292292Y-62219653D01*
X88298990Y-62217477D01*
X88298993Y-62217476D01*
X88448289Y-62168966D01*
X88448291Y-62168965D01*
X88454985Y-62166790D01*
X88534699Y-62119271D01*
X88599216Y-62101500D01*
X92705116Y-62101500D01*
X92774109Y-62122068D01*
X92821230Y-62152903D01*
X92827834Y-62155359D01*
X92827836Y-62155360D01*
X92974957Y-62210074D01*
X92974959Y-62210074D01*
X92981567Y-62212532D01*
X93060654Y-62223085D01*
X93144149Y-62234226D01*
X93144153Y-62234226D01*
X93151130Y-62235157D01*
X93158141Y-62234519D01*
X93158145Y-62234519D01*
X93314473Y-62220292D01*
X93314475Y-62220292D01*
X93321492Y-62219653D01*
X93328190Y-62217477D01*
X93328193Y-62217476D01*
X93477489Y-62168966D01*
X93477491Y-62168965D01*
X93484185Y-62166790D01*
X93563899Y-62119271D01*
X93625072Y-62082805D01*
X93625074Y-62082804D01*
X93631124Y-62079197D01*
X93755005Y-61961227D01*
X93768279Y-61941249D01*
X93845770Y-61824614D01*
X93849671Y-61818743D01*
X93910418Y-61658826D01*
X93911398Y-61651854D01*
X93913151Y-61645026D01*
X93915563Y-61645645D01*
X93940088Y-61591509D01*
X93946467Y-61584637D01*
X94105649Y-61425455D01*
X94167961Y-61391429D01*
X94238776Y-61396494D01*
X94288379Y-61430238D01*
X94384747Y-61537266D01*
X94459406Y-61591509D01*
X94533904Y-61645635D01*
X94539248Y-61649518D01*
X94545276Y-61652202D01*
X94545278Y-61652203D01*
X94707681Y-61724509D01*
X94713712Y-61727194D01*
X94807112Y-61747047D01*
X94894056Y-61765528D01*
X94894061Y-61765528D01*
X94900513Y-61766900D01*
X95091487Y-61766900D01*
X95097939Y-61765528D01*
X95097944Y-61765528D01*
X95184888Y-61747047D01*
X95278288Y-61727194D01*
X95284319Y-61724509D01*
X95446722Y-61652203D01*
X95446724Y-61652202D01*
X95452752Y-61649518D01*
X95458091Y-61645639D01*
X95458098Y-61645635D01*
X95464528Y-61640963D01*
X95538587Y-61616900D01*
X104733330Y-61616900D01*
X104752280Y-61618333D01*
X104766515Y-61620499D01*
X104766519Y-61620499D01*
X104773749Y-61621599D01*
X104781041Y-61621006D01*
X104781044Y-61621006D01*
X104826418Y-61617315D01*
X104836633Y-61616900D01*
X104844693Y-61616900D01*
X104857983Y-61615351D01*
X104872907Y-61613611D01*
X104877282Y-61613178D01*
X104942739Y-61607854D01*
X104942742Y-61607853D01*
X104950037Y-61607260D01*
X104957001Y-61605004D01*
X104962960Y-61603813D01*
X104968815Y-61602429D01*
X104976081Y-61601582D01*
X105044727Y-61576665D01*
X105048855Y-61575248D01*
X105111336Y-61555007D01*
X105111338Y-61555006D01*
X105118299Y-61552751D01*
X105124554Y-61548955D01*
X105130028Y-61546449D01*
X105135458Y-61543730D01*
X105142337Y-61541233D01*
X105203376Y-61501214D01*
X105207080Y-61498877D01*
X105269507Y-61460995D01*
X105277884Y-61453597D01*
X105277908Y-61453624D01*
X105280900Y-61450971D01*
X105284133Y-61448268D01*
X105290252Y-61444256D01*
X105343528Y-61388017D01*
X105345906Y-61385575D01*
X106819019Y-59912462D01*
X122420873Y-59912462D01*
X122430169Y-59924477D01*
X122481374Y-59960331D01*
X122490869Y-59965814D01*
X122688327Y-60057890D01*
X122698619Y-60061636D01*
X122909068Y-60118025D01*
X122919861Y-60119928D01*
X123136905Y-60138917D01*
X123147855Y-60138917D01*
X123364899Y-60119928D01*
X123375692Y-60118025D01*
X123586141Y-60061636D01*
X123596433Y-60057890D01*
X123793891Y-59965814D01*
X123803386Y-59960331D01*
X123855428Y-59923891D01*
X123863804Y-59913412D01*
X123856736Y-59899966D01*
X123155192Y-59198422D01*
X123141248Y-59190808D01*
X123139415Y-59190939D01*
X123132800Y-59195190D01*
X122427303Y-59900687D01*
X122420873Y-59912462D01*
X106819019Y-59912462D01*
X107439876Y-59291605D01*
X107502188Y-59257579D01*
X107528971Y-59254700D01*
X118405613Y-59254700D01*
X118479672Y-59278763D01*
X118486102Y-59283435D01*
X118486109Y-59283439D01*
X118491448Y-59287318D01*
X118497476Y-59290002D01*
X118497478Y-59290003D01*
X118659881Y-59362309D01*
X118665912Y-59364994D01*
X118759312Y-59384847D01*
X118846256Y-59403328D01*
X118846261Y-59403328D01*
X118852713Y-59404700D01*
X119043687Y-59404700D01*
X119050139Y-59403328D01*
X119050144Y-59403328D01*
X119137088Y-59384847D01*
X119230488Y-59364994D01*
X119236519Y-59362309D01*
X119398922Y-59290003D01*
X119398924Y-59290002D01*
X119404952Y-59287318D01*
X119410297Y-59283435D01*
X119527306Y-59198422D01*
X119559453Y-59175066D01*
X119687240Y-59033144D01*
X119782727Y-58867756D01*
X119794386Y-58831875D01*
X121829863Y-58831875D01*
X121848852Y-59048919D01*
X121850755Y-59059712D01*
X121907144Y-59270161D01*
X121910890Y-59280453D01*
X122002966Y-59477911D01*
X122008449Y-59487406D01*
X122044889Y-59539448D01*
X122055368Y-59547824D01*
X122068814Y-59540756D01*
X122770358Y-58839212D01*
X122777972Y-58825268D01*
X122777841Y-58823435D01*
X122773590Y-58816820D01*
X122068093Y-58111323D01*
X122056318Y-58104893D01*
X122044303Y-58114189D01*
X122008449Y-58165394D01*
X122002966Y-58174889D01*
X121910890Y-58372347D01*
X121907144Y-58382639D01*
X121850755Y-58593088D01*
X121848852Y-58603881D01*
X121829863Y-58820925D01*
X121829863Y-58831875D01*
X119794386Y-58831875D01*
X119841742Y-58686128D01*
X119850387Y-58603881D01*
X119861014Y-58502765D01*
X119861704Y-58496200D01*
X119861014Y-58489635D01*
X119842432Y-58312835D01*
X119842432Y-58312833D01*
X119841742Y-58306272D01*
X119782727Y-58124644D01*
X119687240Y-57959256D01*
X119655442Y-57923940D01*
X119563875Y-57822245D01*
X119563874Y-57822244D01*
X119559453Y-57817334D01*
X119452170Y-57739388D01*
X122420956Y-57739388D01*
X122428024Y-57752834D01*
X124216667Y-59541477D01*
X124258409Y-59564271D01*
X124268409Y-59566447D01*
X124318607Y-59616653D01*
X124333831Y-59670214D01*
X124333880Y-59671117D01*
X124333880Y-59674534D01*
X124340635Y-59736716D01*
X124391765Y-59873105D01*
X124479119Y-59989661D01*
X124595675Y-60077015D01*
X124732064Y-60128145D01*
X124794246Y-60134900D01*
X126490514Y-60134900D01*
X126552696Y-60128145D01*
X126689085Y-60077015D01*
X126805641Y-59989661D01*
X126892995Y-59873105D01*
X126944125Y-59736716D01*
X126950880Y-59674534D01*
X126950880Y-57978266D01*
X126944125Y-57916084D01*
X126892995Y-57779695D01*
X126805641Y-57663139D01*
X126689085Y-57575785D01*
X126552696Y-57524655D01*
X126490514Y-57517900D01*
X125458751Y-57517900D01*
X125390630Y-57497898D01*
X125369656Y-57480995D01*
X125204605Y-57315944D01*
X125170579Y-57253632D01*
X125167700Y-57226849D01*
X125167700Y-54392709D01*
X125187702Y-54324588D01*
X125241358Y-54278095D01*
X125311632Y-54267991D01*
X125376212Y-54297485D01*
X125405767Y-54335115D01*
X125434594Y-54391207D01*
X125441235Y-54401512D01*
X125556368Y-54546772D01*
X125564891Y-54555598D01*
X125706045Y-54675730D01*
X125716117Y-54682730D01*
X125877916Y-54773156D01*
X125889156Y-54778067D01*
X126017568Y-54819790D01*
X126031667Y-54820193D01*
X126034800Y-54813821D01*
X126034800Y-54805564D01*
X126542800Y-54805564D01*
X126546773Y-54819095D01*
X126554988Y-54820276D01*
X126649137Y-54793989D01*
X126660587Y-54789548D01*
X126826026Y-54705979D01*
X126836385Y-54699404D01*
X126982439Y-54585295D01*
X126991327Y-54576831D01*
X127112443Y-54436517D01*
X127119511Y-54426497D01*
X127211062Y-54265337D01*
X127216056Y-54254121D01*
X127260942Y-54119190D01*
X127261443Y-54105097D01*
X127255254Y-54102000D01*
X126560915Y-54102000D01*
X126545676Y-54106475D01*
X126544471Y-54107865D01*
X126542800Y-54115548D01*
X126542800Y-54805564D01*
X126034800Y-54805564D01*
X126034800Y-53720000D01*
X126054802Y-53651879D01*
X126108458Y-53605386D01*
X126160800Y-53594000D01*
X127246983Y-53594000D01*
X127260514Y-53590027D01*
X127261606Y-53582433D01*
X127227031Y-53467919D01*
X127222360Y-53456586D01*
X127135337Y-53292918D01*
X127128235Y-53282228D01*
X127107198Y-53214420D01*
X127123627Y-53150264D01*
X127131127Y-53137063D01*
X127171379Y-53066207D01*
X127211523Y-52995542D01*
X127211525Y-52995537D01*
X127214569Y-52990179D01*
X127276997Y-52802513D01*
X127301785Y-52606295D01*
X127302180Y-52578000D01*
X127282880Y-52381167D01*
X127225716Y-52191831D01*
X127132866Y-52017204D01*
X127128967Y-52012424D01*
X127128515Y-52011743D01*
X127107476Y-51943935D01*
X127123905Y-51879775D01*
X127211523Y-51725542D01*
X127211525Y-51725537D01*
X127214569Y-51720179D01*
X127276997Y-51532513D01*
X127301785Y-51336295D01*
X127302180Y-51308000D01*
X127282880Y-51111167D01*
X127225716Y-50921831D01*
X127222824Y-50916391D01*
X127220995Y-50911954D01*
X127213531Y-50841350D01*
X127231312Y-50800631D01*
X127229721Y-50799760D01*
X127234029Y-50791891D01*
X127239415Y-50784705D01*
X127290545Y-50648316D01*
X127297300Y-50586134D01*
X127297300Y-49489866D01*
X127290545Y-49427684D01*
X127239415Y-49291295D01*
X127152061Y-49174739D01*
X127035505Y-49087385D01*
X126899116Y-49036255D01*
X126836934Y-49029500D01*
X125740666Y-49029500D01*
X125678484Y-49036255D01*
X125542095Y-49087385D01*
X125425539Y-49174739D01*
X125420158Y-49181919D01*
X125386864Y-49226343D01*
X125330005Y-49268858D01*
X125296253Y-49276363D01*
X125275001Y-49278091D01*
X125262780Y-49279085D01*
X125252567Y-49279500D01*
X125244507Y-49279500D01*
X125231217Y-49281049D01*
X125216293Y-49282789D01*
X125211918Y-49283222D01*
X125146461Y-49288546D01*
X125146458Y-49288547D01*
X125139163Y-49289140D01*
X125132199Y-49291396D01*
X125126240Y-49292587D01*
X125120385Y-49293971D01*
X125113119Y-49294818D01*
X125044473Y-49319735D01*
X125040345Y-49321152D01*
X124977864Y-49341393D01*
X124977862Y-49341394D01*
X124970901Y-49343649D01*
X124964646Y-49347445D01*
X124959172Y-49349951D01*
X124953742Y-49352670D01*
X124946863Y-49355167D01*
X124885816Y-49395191D01*
X124882127Y-49397518D01*
X124861935Y-49409771D01*
X124824493Y-49432491D01*
X124824488Y-49432495D01*
X124819692Y-49435405D01*
X124811316Y-49442803D01*
X124811293Y-49442777D01*
X124808303Y-49445426D01*
X124805064Y-49448134D01*
X124798948Y-49452144D01*
X124793921Y-49457451D01*
X124793917Y-49457454D01*
X124745672Y-49508383D01*
X124743294Y-49510825D01*
X123920289Y-50333830D01*
X123905877Y-50346216D01*
X123894282Y-50354749D01*
X123894277Y-50354754D01*
X123888382Y-50359092D01*
X123883643Y-50364670D01*
X123883640Y-50364673D01*
X123854165Y-50399368D01*
X123847235Y-50406884D01*
X123841540Y-50412579D01*
X123839260Y-50415461D01*
X123823919Y-50434851D01*
X123821128Y-50438255D01*
X123783262Y-50482826D01*
X123773867Y-50493885D01*
X123770539Y-50500401D01*
X123767172Y-50505450D01*
X123764005Y-50510579D01*
X123759466Y-50516316D01*
X123728545Y-50582475D01*
X123726642Y-50586369D01*
X123693431Y-50651408D01*
X123691692Y-50658516D01*
X123689593Y-50664159D01*
X123687676Y-50669922D01*
X123684578Y-50676550D01*
X123683088Y-50683712D01*
X123683088Y-50683713D01*
X123669714Y-50748012D01*
X123668744Y-50752296D01*
X123651392Y-50823210D01*
X123650700Y-50834364D01*
X123650664Y-50834362D01*
X123650425Y-50838355D01*
X123650051Y-50842547D01*
X123648560Y-50849715D01*
X123648758Y-50857032D01*
X123650654Y-50927121D01*
X123650700Y-50930528D01*
X123650700Y-57444256D01*
X123630698Y-57512377D01*
X123577042Y-57558870D01*
X123506768Y-57568974D01*
X123492089Y-57565963D01*
X123375692Y-57534775D01*
X123364899Y-57532872D01*
X123147855Y-57513883D01*
X123136905Y-57513883D01*
X122919861Y-57532872D01*
X122909068Y-57534775D01*
X122698619Y-57591164D01*
X122688327Y-57594910D01*
X122490869Y-57686986D01*
X122481374Y-57692469D01*
X122429332Y-57728909D01*
X122420956Y-57739388D01*
X119452170Y-57739388D01*
X119449847Y-57737700D01*
X119410294Y-57708963D01*
X119410293Y-57708962D01*
X119404952Y-57705082D01*
X119398924Y-57702398D01*
X119398922Y-57702397D01*
X119236519Y-57630091D01*
X119236518Y-57630091D01*
X119230488Y-57627406D01*
X119135427Y-57607200D01*
X119050144Y-57589072D01*
X119050139Y-57589072D01*
X119043687Y-57587700D01*
X118852713Y-57587700D01*
X118846261Y-57589072D01*
X118846256Y-57589072D01*
X118760973Y-57607200D01*
X118665912Y-57627406D01*
X118659882Y-57630091D01*
X118659881Y-57630091D01*
X118497478Y-57702397D01*
X118497476Y-57702398D01*
X118491448Y-57705082D01*
X118486109Y-57708961D01*
X118486102Y-57708965D01*
X118479672Y-57713637D01*
X118405613Y-57737700D01*
X107229669Y-57737700D01*
X107210721Y-57736267D01*
X107203380Y-57735150D01*
X107196483Y-57734101D01*
X107196481Y-57734101D01*
X107189251Y-57733001D01*
X107181959Y-57733594D01*
X107181956Y-57733594D01*
X107136582Y-57737285D01*
X107126367Y-57737700D01*
X107118307Y-57737700D01*
X107105017Y-57739249D01*
X107090093Y-57740989D01*
X107085718Y-57741422D01*
X107020261Y-57746746D01*
X107020258Y-57746747D01*
X107012963Y-57747340D01*
X107005999Y-57749596D01*
X107000040Y-57750787D01*
X106994185Y-57752171D01*
X106986919Y-57753018D01*
X106918273Y-57777935D01*
X106914145Y-57779352D01*
X106851664Y-57799593D01*
X106851662Y-57799594D01*
X106844701Y-57801849D01*
X106838446Y-57805645D01*
X106832972Y-57808151D01*
X106827542Y-57810870D01*
X106820663Y-57813367D01*
X106759616Y-57853391D01*
X106755927Y-57855718D01*
X106735735Y-57867971D01*
X106698293Y-57890691D01*
X106698288Y-57890695D01*
X106693492Y-57893605D01*
X106685116Y-57901003D01*
X106685093Y-57900977D01*
X106682103Y-57903626D01*
X106678864Y-57906334D01*
X106672748Y-57910344D01*
X106667721Y-57915651D01*
X106667717Y-57915654D01*
X106619472Y-57966583D01*
X106617094Y-57969025D01*
X104523124Y-60062995D01*
X104460812Y-60097021D01*
X104434029Y-60099900D01*
X95735394Y-60099900D01*
X95667273Y-60079898D01*
X95620780Y-60026242D01*
X95610676Y-59955968D01*
X95640170Y-59891388D01*
X95646299Y-59884805D01*
X97170478Y-58360626D01*
X97220636Y-58329888D01*
X97287489Y-58308166D01*
X97287491Y-58308165D01*
X97294185Y-58305990D01*
X97441124Y-58218397D01*
X97565005Y-58100427D01*
X97659671Y-57957943D01*
X97714559Y-57813451D01*
X97717918Y-57804608D01*
X97717919Y-57804606D01*
X97720418Y-57798026D01*
X97722994Y-57779695D01*
X97743675Y-57632547D01*
X97743675Y-57632544D01*
X97744226Y-57628625D01*
X97744525Y-57607200D01*
X97728024Y-57460093D01*
X97726241Y-57444198D01*
X97725456Y-57437200D01*
X97669199Y-57275650D01*
X97578548Y-57130578D01*
X97565359Y-57117296D01*
X97462972Y-57014192D01*
X97458009Y-57009194D01*
X97392739Y-56967773D01*
X97319516Y-56921304D01*
X97319513Y-56921302D01*
X97313573Y-56917533D01*
X97306940Y-56915171D01*
X97159054Y-56862511D01*
X97159049Y-56862510D01*
X97152419Y-56860149D01*
X97145431Y-56859316D01*
X97145428Y-56859315D01*
X97029855Y-56845534D01*
X96982557Y-56839894D01*
X96975554Y-56840630D01*
X96975553Y-56840630D01*
X96931158Y-56845296D01*
X96812428Y-56857775D01*
X96802271Y-56861233D01*
X96657156Y-56910634D01*
X96657153Y-56910635D01*
X96650489Y-56912904D01*
X96504788Y-57002540D01*
X96499757Y-57007467D01*
X96499754Y-57007469D01*
X96492889Y-57014192D01*
X96382566Y-57122228D01*
X96378747Y-57128153D01*
X96378746Y-57128155D01*
X96373335Y-57136552D01*
X96289898Y-57266020D01*
X96287487Y-57272643D01*
X96287486Y-57272646D01*
X96233800Y-57420147D01*
X96233799Y-57420152D01*
X96231390Y-57426770D01*
X96225064Y-57476843D01*
X96196684Y-57541915D01*
X96189154Y-57550142D01*
X93050896Y-60688399D01*
X93002407Y-60718582D01*
X92847153Y-60771435D01*
X92847150Y-60771436D01*
X92840489Y-60773704D01*
X92772034Y-60815818D01*
X92706014Y-60834500D01*
X88599486Y-60834500D01*
X88531972Y-60814886D01*
X88480316Y-60782104D01*
X88480313Y-60782102D01*
X88474373Y-60778333D01*
X88467740Y-60775971D01*
X88319854Y-60723311D01*
X88319849Y-60723310D01*
X88313219Y-60720949D01*
X88306231Y-60720116D01*
X88306228Y-60720115D01*
X88190655Y-60706334D01*
X88143357Y-60700694D01*
X88136354Y-60701430D01*
X88136353Y-60701430D01*
X88091958Y-60706096D01*
X87973228Y-60718575D01*
X87963071Y-60722033D01*
X87817956Y-60771434D01*
X87817953Y-60771435D01*
X87811289Y-60773704D01*
X87665588Y-60863340D01*
X87660557Y-60868267D01*
X87660554Y-60868269D01*
X87601573Y-60926028D01*
X87543366Y-60983028D01*
X87450698Y-61126820D01*
X87448287Y-61133443D01*
X87448286Y-61133446D01*
X87394600Y-61280947D01*
X87394599Y-61280952D01*
X87392190Y-61287570D01*
X87370750Y-61457286D01*
X82550000Y-61457286D01*
X82550000Y-48262566D01*
X90862670Y-48262566D01*
X90879363Y-48432816D01*
X90933360Y-48595136D01*
X90937007Y-48601158D01*
X90937008Y-48601160D01*
X91018326Y-48735434D01*
X91018329Y-48735437D01*
X91021976Y-48741460D01*
X91140809Y-48864514D01*
X91146705Y-48868372D01*
X91277908Y-48954229D01*
X91283950Y-48958183D01*
X91290554Y-48960639D01*
X91290556Y-48960640D01*
X91437677Y-49015354D01*
X91437679Y-49015354D01*
X91444287Y-49017812D01*
X91523374Y-49028365D01*
X91606869Y-49039506D01*
X91606873Y-49039506D01*
X91613850Y-49040437D01*
X91620861Y-49039799D01*
X91620865Y-49039799D01*
X91777193Y-49025572D01*
X91777195Y-49025572D01*
X91784212Y-49024933D01*
X91790910Y-49022757D01*
X91790913Y-49022756D01*
X91940209Y-48974246D01*
X91940211Y-48974245D01*
X91946905Y-48972070D01*
X92048897Y-48911271D01*
X92113414Y-48893500D01*
X101669422Y-48893500D01*
X101737543Y-48913502D01*
X101777198Y-48954229D01*
X101852006Y-49077754D01*
X101852009Y-49077757D01*
X101855656Y-49083780D01*
X101974489Y-49206834D01*
X101980385Y-49210692D01*
X102103559Y-49291295D01*
X102117630Y-49300503D01*
X102124234Y-49302959D01*
X102124236Y-49302960D01*
X102171330Y-49320474D01*
X102277967Y-49360132D01*
X102284953Y-49361064D01*
X102288626Y-49361980D01*
X102347238Y-49395142D01*
X103636343Y-50684247D01*
X103643887Y-50692537D01*
X103648000Y-50699018D01*
X103653777Y-50704443D01*
X103697667Y-50745658D01*
X103700509Y-50748413D01*
X103720231Y-50768135D01*
X103723355Y-50770558D01*
X103723359Y-50770562D01*
X103723424Y-50770612D01*
X103732445Y-50778317D01*
X103764679Y-50808586D01*
X103771627Y-50812405D01*
X103771629Y-50812407D01*
X103782432Y-50818346D01*
X103798959Y-50829202D01*
X103808698Y-50836757D01*
X103808700Y-50836758D01*
X103814960Y-50841614D01*
X103855540Y-50859174D01*
X103866188Y-50864391D01*
X103904940Y-50885695D01*
X103912616Y-50887666D01*
X103912619Y-50887667D01*
X103924562Y-50890733D01*
X103943267Y-50897137D01*
X103961855Y-50905181D01*
X103969678Y-50906420D01*
X103969688Y-50906423D01*
X104005524Y-50912099D01*
X104017144Y-50914505D01*
X104052289Y-50923528D01*
X104059970Y-50925500D01*
X104080224Y-50925500D01*
X104099934Y-50927051D01*
X104119943Y-50930220D01*
X104127835Y-50929474D01*
X104163961Y-50926059D01*
X104175819Y-50925500D01*
X111450316Y-50925500D01*
X111519309Y-50946068D01*
X111566430Y-50976903D01*
X111573034Y-50979359D01*
X111573036Y-50979360D01*
X111720157Y-51034074D01*
X111720159Y-51034074D01*
X111726767Y-51036532D01*
X111805854Y-51047085D01*
X111889349Y-51058226D01*
X111889353Y-51058226D01*
X111896330Y-51059157D01*
X111903341Y-51058519D01*
X111903345Y-51058519D01*
X112059673Y-51044292D01*
X112059675Y-51044292D01*
X112066692Y-51043653D01*
X112073390Y-51041477D01*
X112073393Y-51041476D01*
X112222689Y-50992966D01*
X112222691Y-50992965D01*
X112229385Y-50990790D01*
X112330476Y-50930528D01*
X112370272Y-50906805D01*
X112370274Y-50906804D01*
X112376324Y-50903197D01*
X112500205Y-50785227D01*
X112507498Y-50774251D01*
X112567296Y-50684247D01*
X112594871Y-50642743D01*
X112655618Y-50482826D01*
X112666800Y-50403263D01*
X112678875Y-50317347D01*
X112678875Y-50317344D01*
X112679426Y-50313425D01*
X112679725Y-50292000D01*
X112660656Y-50122000D01*
X112604399Y-49960450D01*
X112513748Y-49815378D01*
X112393209Y-49693994D01*
X112307839Y-49639817D01*
X112254716Y-49606104D01*
X112254713Y-49606102D01*
X112248773Y-49602333D01*
X112242140Y-49599971D01*
X112094254Y-49547311D01*
X112094249Y-49547310D01*
X112087619Y-49544949D01*
X112080631Y-49544116D01*
X112080628Y-49544115D01*
X111965055Y-49530334D01*
X111917757Y-49524694D01*
X111910754Y-49525430D01*
X111910753Y-49525430D01*
X111866358Y-49530096D01*
X111747628Y-49542575D01*
X111737667Y-49545966D01*
X111592353Y-49595435D01*
X111592350Y-49595436D01*
X111585689Y-49597704D01*
X111517234Y-49639818D01*
X111451214Y-49658500D01*
X104454594Y-49658500D01*
X104386473Y-49638498D01*
X104365499Y-49621595D01*
X103243102Y-48499197D01*
X103213248Y-48445115D01*
X103211856Y-48445600D01*
X103157914Y-48290697D01*
X103157913Y-48290695D01*
X103155599Y-48284050D01*
X103064948Y-48138978D01*
X103026085Y-48099842D01*
X102949372Y-48022592D01*
X102944409Y-48017594D01*
X102809691Y-47932100D01*
X102805916Y-47929704D01*
X102805913Y-47929702D01*
X102799973Y-47925933D01*
X102638819Y-47868549D01*
X102638971Y-47868121D01*
X102585707Y-47839560D01*
X102550350Y-47806358D01*
X102547507Y-47803602D01*
X102527770Y-47783865D01*
X102524573Y-47781385D01*
X102515551Y-47773680D01*
X102489100Y-47748841D01*
X102483321Y-47743414D01*
X102476375Y-47739595D01*
X102476372Y-47739593D01*
X102465566Y-47733652D01*
X102449047Y-47722801D01*
X102448583Y-47722441D01*
X102433041Y-47710386D01*
X102425772Y-47707241D01*
X102425768Y-47707238D01*
X102392463Y-47692826D01*
X102381813Y-47687609D01*
X102343060Y-47666305D01*
X102323437Y-47661267D01*
X102304734Y-47654863D01*
X102293420Y-47649967D01*
X102293419Y-47649967D01*
X102286145Y-47646819D01*
X102278322Y-47645580D01*
X102278312Y-47645577D01*
X102242476Y-47639901D01*
X102230856Y-47637495D01*
X102195711Y-47628472D01*
X102195710Y-47628472D01*
X102188030Y-47626500D01*
X102167776Y-47626500D01*
X102148065Y-47624949D01*
X102135886Y-47623020D01*
X102128057Y-47621780D01*
X102120165Y-47622526D01*
X102084039Y-47625941D01*
X102072181Y-47626500D01*
X92070480Y-47626500D01*
X92002967Y-47606886D01*
X91972240Y-47587387D01*
X91966293Y-47583613D01*
X91959660Y-47581251D01*
X91811774Y-47528591D01*
X91811769Y-47528590D01*
X91805139Y-47526229D01*
X91798151Y-47525396D01*
X91798148Y-47525395D01*
X91682575Y-47511614D01*
X91635277Y-47505974D01*
X91628274Y-47506710D01*
X91628273Y-47506710D01*
X91583878Y-47511376D01*
X91465148Y-47523855D01*
X91454991Y-47527313D01*
X91309876Y-47576714D01*
X91309873Y-47576715D01*
X91303209Y-47578984D01*
X91157508Y-47668620D01*
X91152477Y-47673547D01*
X91152474Y-47673549D01*
X91118072Y-47707238D01*
X91035286Y-47788308D01*
X91031467Y-47794233D01*
X91031466Y-47794235D01*
X91002256Y-47839560D01*
X90942618Y-47932100D01*
X90940207Y-47938723D01*
X90940206Y-47938726D01*
X90886520Y-48086227D01*
X90886519Y-48086232D01*
X90884110Y-48092850D01*
X90862670Y-48262566D01*
X82550000Y-48262566D01*
X82550000Y-47242190D01*
X82570002Y-47174069D01*
X82586905Y-47153095D01*
X82713095Y-47026905D01*
X82775407Y-46992879D01*
X82802190Y-46990000D01*
X129287810Y-46990000D01*
X129355931Y-47010002D01*
G37*
%TD.AperFunction*%
%TD*%
M02*
