M48
; DRILL file {KiCad (6.0.0)} date Sat Jan  8 23:03:01 2022
; FORMAT={-:-/ absolute / inch / decimal}
; #@! TF.CreationDate,2022-01-08T23:03:01+00:00
; #@! TF.GenerationSoftware,Kicad,Pcbnew,(6.0.0)
; #@! TF.FileFunction,MixedPlating,1,2
FMAT,2
INCH
; #@! TA.AperFunction,Plated,PTH,ViaDrill
T1C0.0100
; #@! TA.AperFunction,Plated,PTH,ViaDrill
T2C0.0157
; #@! TA.AperFunction,Plated,PTH,ComponentDrill
T3C0.0256
; #@! TA.AperFunction,Plated,PTH,ComponentDrill
T4C0.0315
; #@! TA.AperFunction,Plated,PTH,ComponentDrill
T5C0.0512
; #@! TA.AperFunction,Plated,PTH,ComponentDrill
T6C0.1181
%
G90
G05
T1
X3.47Y-2.42
X3.6075Y-1.9005
X3.668Y-2.42
X3.818Y-2.268
X3.894Y-2.27
X3.914Y-2.17
X4.034Y-1.914
X4.162Y-1.916
X4.406Y-1.98
X4.623Y-2.117
X4.6746Y-1.928
T2
X3.74Y-2.396
X4.078Y-2.336
X4.2488Y-2.3609
X4.65Y-2.5
X4.683Y-2.303
T3
X4.972Y-1.97
X4.972Y-2.02
X4.972Y-2.07
X4.972Y-2.12
T4
X4.8481Y-2.316
X4.9466Y-2.316
T5
X3.7254Y-2.6506
X3.7254Y-3.0506
X3.7254Y-3.3506
X4.0254Y-2.6506
X4.3254Y-2.6506
X4.3254Y-3.0506
X4.3254Y-3.3506
X4.6254Y-2.6506
T6
X3.425Y-3.0083
X3.425Y-3.2917
X4.925Y-3.0083
X4.925Y-3.2917
T0
M30
